<?xml version="1.0" encoding="UTF-8"?>
<svg width="16px" height="16px" viewBox="0 0 16 16" version="1.1" xmlns="http://www.w3.org/2000/svg" xmlns:xlink="http://www.w3.org/1999/xlink">
    <!-- Generator: Sketch 49.1 (51147) - http://www.bohemiancoding.com/sketch -->
    <title>Slice 13</title>
    <desc>Created with Sketch.</desc>
    <defs>
        <polygon id="path-1" points="0 -0.000110204082 8.47555019 -0.000110204082 8.47555019 15.2546143 0 15.2546143"></polygon>
    </defs>
    <g id="Page-1" stroke="none" stroke-width="1" fill="none" fill-rule="evenodd">
        <g id="2.8-I--我的收入-Copy" transform="translate(-793.000000, -233.000000)">
            <g id="Group-17" transform="translate(801.000000, 241.000000) rotate(-90.000000) translate(-801.000000, -241.000000) translate(793.000000, 233.000000)">
                <g id="Page-1" transform="translate(8.285714, 8.285714) rotate(-180.000000) translate(-8.285714, -8.285714) translate(4.000000, 0.571429)">
                    <mask id="mask-2" fill="white">
                        <use xlink:href="#path-1"></use>
                    </mask>
                    <g id="Clip-2"></g>
                    <path d="M8.47367532,7.59203265 C8.46549351,7.50937959 8.42848052,7.42856327 8.36107792,7.36537959 L0.663935065,0.107338776 C0.511597403,-0.0359265306 0.265753247,-0.0359265306 0.114194805,0.107338776 C-0.0381428571,0.250604082 -0.0381428571,0.4824 0.114194805,0.625665306 L7.53938961,7.62729796 L0.114194805,14.6289306 C-0.0381428571,14.7721959 -0.0381428571,15.0043592 0.114194805,15.1468898 C0.266142857,15.2905224 0.511597403,15.2905224 0.663935065,15.1468898 L8.36185714,7.88884898" id="Fill-1" fill="#9B9B9B" mask="url(#mask-2)"></path>
                </g>
            </g>
        </g>
    </g>
</svg>