<?xml version="1.0" encoding="UTF-8"?>
<svg width="104px" height="104px" viewBox="0 0 104 104" version="1.1" xmlns="http://www.w3.org/2000/svg" xmlns:xlink="http://www.w3.org/1999/xlink">
    <!-- Generator: Sketch 49.1 (51147) - http://www.bohemiancoding.com/sketch -->
    <title>2.1个人中心 </title>
    <desc>Created with Sketch.</desc>
    <defs></defs>
    <g id="Page-1" stroke="none" stroke-width="1" fill="none" fill-rule="evenodd">
        <g id="2.1-I--我的文档-1-" transform="translate(-1023.000000, -354.000000)" fill="#E1E1E1">
            <g id="暂无数据" transform="translate(1023.000000, 354.000000)">
                <g id="zanwushuju" transform="translate(6.000000, 2.000000)">
                    <path d="M56.2093023,46.9406365 C57.4066095,46.397552 58.6037944,45.419339 59.6905753,44.4411261 C59.7991432,44.3320685 59.9085679,44.1140759 59.9085679,44.0064871 C59.8,43.7884945 59.6915545,43.6799266 59.5820073,43.5703794 C59.4734394,43.5703794 59.2554468,43.6789474 59.1468788,43.6789474 C58.121787,44.6079559 56.9895961,45.4111383 55.7738066,46.0719706 C55.5566707,46.1795594 55.447246,46.5056304 55.5566707,46.7226438 C55.7738066,46.9406365 55.9917993,47.0492044 56.2093023,46.9406365 Z M41.630967,41.6144431 C41.84847,41.5058752 42.0660955,41.2878825 42.0660955,41.0712362 C41.9575275,40.6357405 41.9575275,40.3101591 41.9575275,39.8750306 L42.3926561,38.3531212 C42.6096695,37.9186047 42.8276622,37.5920441 43.1547124,37.2663403 C43.3718482,37.0488372 43.3718482,36.8318237 43.1547124,36.5052632 C42.9372093,36.2876377 42.7187271,36.2876377 42.3926561,36.5052632 C41.196328,37.8095471 40.6522644,39.4403917 40.9783354,41.178825 C41.0869033,41.5058752 41.4134639,41.723011 41.6314565,41.6144431 L41.630967,41.6144431 Z M61.6494492,42.5926561 C62.5195838,41.723011 63.3893513,40.6357405 64.150918,39.5489596 C64.2594859,39.4403917 64.2594859,39.3318237 64.2594859,39.2228886 C64.150918,39.0057528 64.150918,39.0057528 64.0424725,38.896328 C63.9339045,38.7887393 63.8253366,38.7887393 63.7159119,38.7887393 C63.6073439,38.8973072 63.498776,38.8973072 63.3893513,39.0057528 C62.5195838,40.0920441 61.7583843,41.0703794 60.8867809,42.049082 C60.6697674,42.2660955 60.6697674,42.4832313 60.996328,42.8096695 C61.2138311,42.8096695 61.4318237,42.8096695 61.6494492,42.5926561 Z M44.677601,36.0706242 C44.7860465,36.0706242 44.7860465,36.0706242 44.8946144,35.9620563 C46.0917993,35.4179927 47.6141983,35.2008568 48.9209302,35.5274174 C49.1379437,35.6359853 49.4640147,35.4179927 49.4640147,35.2008568 C49.5725826,34.9838433 49.3554468,34.6577723 49.1379437,34.6577723 C47.723623,34.2226438 45.9833537,34.4406365 44.4594859,35.0924113 C44.2424725,35.2008568 44.1329253,35.4189718 44.2424725,35.6354957 C44.2424725,35.8526316 44.4594859,36.0706242 44.6766218,36.0706242 L44.677601,36.0706242 Z M52.5106487,40.9627907 C52.5106487,41.178825 52.6190942,41.2878825 52.7281518,41.3964504 C52.9451652,41.5058752 53.0547124,41.5058752 53.1632803,41.2878825 C53.2717258,41.178825 53.3802938,41.0703794 53.3802938,40.8532436 C53.1632803,38.6791922 52.2925337,37.0488372 51.096328,35.8534884 C50.8783354,35.6359853 50.5517748,35.7445532 50.3341493,35.9620563 C50.1171359,36.1791922 50.1171359,36.3966952 50.4432069,36.7222766 C51.6403917,37.5920441 52.2925337,39.0057528 52.5106487,40.9618115 L52.5106487,40.9627907 Z M46.3094247,46.6141983 C46.2003672,46.8312118 46.2003672,47.1577723 46.5264382,47.2671971 C47.5228886,47.7735618 48.5848225,48.1389229 49.6820073,48.3534884 L49.7905753,48.3534884 C50.0075887,48.3534884 50.2257038,48.1364749 50.2257038,47.9189718 C50.3341493,47.701836 50.0085679,47.4838433 49.7905753,47.3752754 C48.8113831,47.2668299 47.9407589,46.9406365 46.9625459,46.5056304 C46.7444308,46.2880049 46.5274174,46.3970624 46.3094247,46.6141983 Z M53.4893513,43.3528764 C53.3802938,43.2443084 53.2717258,43.1358629 53.1632803,43.1358629 C52.9451652,43.027295 52.6190942,43.3528764 52.6190942,43.5703794 C52.5106487,44.875153 52.1840881,46.0709914 51.8575275,47.2668299 C51.6403917,47.2668299 51.4228886,47.3752754 51.3133415,47.3752754 C51.096328,47.3752754 50.8783354,47.5924113 50.8783354,47.8099143 C50.8783354,48.0269278 51.0953488,48.2450428 51.3133415,48.2450428 L51.5314565,48.2450428 C51.2932681,48.7063647 51.0752754,49.1778458 50.8783354,49.6578947 C50.7697674,49.8758874 50.7697674,50.2019584 51.0953488,50.3105263 C51.3133415,50.4189718 51.6403917,50.4189718 51.7489596,50.0929009 C52.0755202,49.5498164 52.2925337,48.8966952 52.6190942,48.2450428 C53.0547124,48.1364749 53.4893513,48.1364749 53.8164015,48.027907 C54.0339045,47.9189718 54.250918,47.7008568 54.1424725,47.4838433 C54.0339045,47.2668299 53.8159119,47.0492044 53.5982864,47.1577723 C53.3802938,47.2668299 53.1632803,47.2668299 53.0547124,47.2668299 C53.3812729,46.1805386 53.5982864,44.9837209 53.8164015,43.7884945 C53.5982864,43.570869 53.4898409,43.4624235 53.4898409,43.3538556 L53.4893513,43.3528764 Z M42.174541,42.701224 C41.9575275,42.8096695 41.9575275,43.1358629 42.0660955,43.4619339 C42.6096695,44.2235006 43.2632803,44.9837209 44.1334149,45.6363525 L45.003672,46.3970624 C45.2206854,46.6141983 45.547246,46.5056304 45.7652387,46.2880049 C45.9823745,46.0709914 45.8738066,45.7449204 45.6567931,45.527907 C45.3302326,45.3107711 45.1121175,45.0927785 44.7860465,44.7667075 C44.0244798,44.1150551 43.3718482,43.4619339 42.9367197,42.7007344 C42.6942472,42.5916769 42.4170135,42.5916769 42.174541,42.7007344 L42.174541,42.701224 Z M68.9384333,30.9609547 C69.1554468,31.0695226 69.4820073,31.0695226 69.5914321,30.7433293 C70.6791922,28.5694002 71.3308446,27.0479804 71.3308446,27.0479804 C71.4403917,26.8304774 71.4403917,26.504896 71.1143207,26.396328 C71.0057528,26.2867809 70.896328,26.2867809 70.6791922,26.396328 C70.5706242,26.504896 70.4621787,26.504896 70.4621787,26.6133415 C70.4621787,26.6133415 69.9171359,28.1347613 68.7208078,30.3088127 C68.6122399,30.5263158 68.7208078,30.8518972 68.9384333,30.9609547 Z M65.3482252,37.4829865 C65.5652387,37.4829865 65.6746634,37.373929 65.7832313,37.2654835 C66.6567931,35.949694 67.4910649,34.6080783 68.2858017,33.2434517 C68.3942472,33.1350061 68.3942472,33.0259486 68.3942472,32.8088127 C68.2858017,32.7003672 68.2858017,32.5917993 68.1772338,32.4827417 C68.0681763,32.3742962 67.9592411,32.3742962 67.7416157,32.3742962 C67.6330477,32.4827417 67.5246022,32.4827417 67.4150551,32.5917993 C66.6534884,34.0046512 65.8922889,35.3089351 65.0225214,36.6128519 C64.9130967,36.721787 64.9130967,36.9397797 64.9130967,37.0473684 C65.0216646,37.4829865 65.2396573,37.4829865 65.3482252,37.4829865 Z M42.6096695,59.4411261 C43.6984088,58.680049 44.677601,58.0282742 45.655814,57.2671971 C45.7652387,57.1581395 45.8738066,57.0495716 45.8738066,56.8325581 C45.7652387,56.6150551 45.7652387,56.5059976 45.547246,56.3979192 C45.3307222,56.2893513 45.2216646,56.2893513 45.1121175,56.5064871 C44.1334149,57.2671971 43.1547124,58.0282742 42.0660955,58.680049 C41.84847,58.7884945 41.7395349,59.1150551 41.9575275,59.4411261 C42.0660955,59.4411261 42.3926561,59.549694 42.6106487,59.4411261 L42.6096695,59.4411261 Z M40.870257,60.3108935 L40.4342717,59.4411261 C38.3673195,60.6364749 36.8445532,61.1805386 36.8445532,61.1805386 L37.1711138,62.050306 C37.3876377,62.050306 38.8029376,61.5070991 40.870257,60.3108935 Z" id="Fill-1"></path>
                    <path d="M25.8271726,21.9689106 C25.8271726,22.6210526 26.1537332,23.1646267 26.6973072,23.4908201 C27.2413709,23.8173807 27.8941248,23.8173807 28.5471236,23.4908201 C29.0908201,23.1642595 29.4168911,22.6210526 29.4168911,21.9689106 C29.4168911,20.9906977 28.5471236,20.1209302 27.5670747,20.1209302 C26.6973072,20.1209302 25.8271726,20.9906977 25.8271726,21.9689106 Z M88.2258262,18.4499388 C86.8105263,18.4499388 85.7227662,19.6452876 85.7227662,21.0585067 C85.7227662,22.4713586 86.8105263,23.6676867 88.2258262,23.6676867 C89.6391677,23.6676867 90.7277846,22.4718482 90.7277846,21.0585067 C90.8363525,19.5367197 89.6391677,18.4499388 88.224847,18.4499388 L88.2258262,18.4499388 Z M73.8941248,3.98004896 C73.3767442,3.98249694 72.880049,3.77931457 72.5128519,3.41542228 C72.1456548,3.05152999 71.9380661,2.55667075 71.9357405,2.03990208 L71.9357405,2.02411261 C71.9337821,1.50673195 72.1369645,1.01003672 72.5013464,0.643206854 C72.8656059,0.276009792 73.3609547,0.0690330477 73.8778458,0.0670746634 L73.8941248,0.0670746634 C74.9818849,0.175642595 75.7434517,0.936842105 75.8520196,2.02411261 C75.8553244,3.0998776 74.9866585,3.9747858 73.9108935,3.97906977 L73.8941248,3.97906977 L73.8941248,3.98004896 Z" id="Fill-2"></path>
                    <path d="M72.9631579,77.2674419 L55.2301102,77.2674419 C54.6860465,77.2674419 54.0339045,77.3764994 53.4893513,77.9200734 C52.9451652,78.4632803 52.9451652,79.3329253 52.8367197,79.6594859 C52.7281518,81.2898409 52.0755202,82.8122399 51.0973072,84.1155447 C49.8991432,85.5293758 48.0492044,86.5075887 46.0913097,86.5075887 C44.5680539,86.6161567 42.9367197,86.0729498 41.630967,85.0947368 C39.8905753,83.8985312 38.8029376,81.8335373 38.69388,79.7675643 C38.5853121,79.3329253 38.5853121,78.3547124 37.9321909,77.8115055 C37.3881273,77.376989 36.7350061,77.2684211 36.1909425,77.2684211 L18.4588739,77.2684211 C18.0232558,77.2684211 17.5881273,77.70306 17.5881273,78.1375765 C17.5881273,78.5717258 18.0232558,79.0073439 18.4588739,79.0073439 L36.0833537,79.0073439 C36.4099143,79.1159119 36.6269278,79.1159119 36.6269278,79.1159119 L36.7359853,79.2243574 C36.8445532,79.3329253 36.9529988,79.7675643 36.9529988,80.0941248 C37.0615667,82.7026928 38.3673195,85.2028152 40.5436965,86.7247246 C42.0665851,87.8118727 43.8078335,88.4645043 45.6572827,88.4645043 C45.8747858,88.4645043 45.9833537,88.3555692 46.2003672,88.3555692 C48.5470012,88.250306 50.7477356,87.1898409 52.2925337,85.4203182 C53.7078335,83.8985312 54.3604651,81.9416157 54.469033,79.9845777 C54.5774786,79.8761322 54.5774786,79.4414933 54.6860465,79.3329253 L54.7955936,79.2243574 C54.9040392,79.1159119 55.0130967,79.1159119 55.3396573,79.1159119 L72.9641371,79.1159119 C73.3992656,79.1159119 73.8347613,78.6802938 73.8347613,78.2461444 C73.8347613,77.70306 73.3992656,77.2674419 72.9641371,77.2674419 L72.9631579,77.2674419 Z" id="Fill-3"></path>
                    <path d="M3.80771114,20.9184823 C3.80771114,20.9184823 2.50195838,25.2664627 0,25.9182375 C0,25.9182375 3.15556916,27.2235006 3.80771114,30.4837209 C3.80771114,30.4837209 4.24332925,25.8096695 8.05104039,25.7011016 C8.05104039,25.5925337 4.0253366,23.5270502 3.80771114,20.9184823 Z M27.0880049,10.8381885 C27.0880049,10.8381885 27.523011,7.25140759 30.2435741,7.14283966 C30.2435741,7.25140759 27.0880049,5.5129743 27.0880049,3.44749082 C27.0880049,3.44749082 26.1096695,6.81725826 24.0418605,7.25140759 C24.1504284,7.36034272 26.653366,8.33867809 27.0880049,10.8391677 L27.0880049,10.8381885 Z M84.3645043,45.6440636 C84.3645043,45.6440636 83.9293758,47.2749082 82.9501836,47.4924113 C82.9501836,47.4924113 84.1465116,47.9265606 84.3645043,49.2318237 C84.3645043,49.2318237 84.5815177,47.4924113 85.8872705,47.4924113 C85.996328,47.3834761 84.4730722,46.6222766 84.3645043,45.6440636 Z M17.4787026,38.123623 C17.4787026,38.123623 16.4995104,41.4935129 14.4325581,41.9280294 C14.4325581,41.9280294 16.9350061,42.9063647 17.4787026,45.4068543 C17.4787026,45.4068543 17.9141983,41.8195838 20.6342717,41.7110159 C20.7428397,41.8195838 17.5881273,40.1891065 17.4787026,38.123623 Z M89.5296206,60.6465116 C89.5296206,60.6465116 89.094492,62.2773562 88.1152999,62.494492 C88.1152999,62.494492 89.3116279,62.9290086 89.5296206,64.2343941 C89.5296206,64.2343941 89.7471236,62.494492 91.0528764,62.494492 C91.0528764,62.494492 89.5296206,61.6247246 89.5296206,60.6465116 Z" id="Fill-4"></path>
                    <path d="M76.6629131,77.1588739 C76.771481,77.7020808 76.771481,78.0286414 76.8799266,78.4632803 L76.8799266,97.4862913 C76.8799266,98.2468788 76.6629131,98.7905753 76.227295,99.2255814 C75.6837209,99.6602203 74.9225214,99.7687882 74.4865361,99.7687882 L17.2615667,99.7687882 C17.2615667,99.8778458 17.2615667,99.8778458 17.1531212,99.8778458 C16.6089351,99.8778458 15.8473684,99.8778458 15.3031824,99.3346389 C14.5411261,98.6820073 14.5411261,97.7037944 14.5411261,97.1605875 L14.5411261,78.3547124 C14.4325581,77.594492 14.6500612,77.0504284 14.8681763,76.3986536 L14.9766218,76.1811506 L18.1313341,66.5063647 C19.5465116,62.050306 20.9598531,57.7022032 22.4835985,53.3542228 L22.375153,53.3542228 C22.701224,52.5930233 23.1362301,52.0489596 23.8984088,51.8318237 C24.2249694,51.6148103 24.6596083,51.7233782 25.0946144,51.7233782 L49.3554468,51.7233782 C49.4640147,51.7233782 49.4640147,51.6148103 49.5725826,51.5057528 C49.7905753,51.2887393 50.1171359,51.2887393 50.3341493,51.3973072 C50.4432069,51.5057528 50.6611995,51.6148103 50.5517748,51.7238678 L50.5517748,51.8318237 L66.5444308,51.8318237 C67.5246022,51.8318237 68.3942472,52.4844553 68.7208078,53.4627907 C70.3526316,58.24541 71.9839657,62.919951 73.5073439,67.7025704 C74.5959608,70.8548348 75.5746634,74.0066095 76.6629131,77.1598531 L76.6629131,77.1588739 Z M75.2481028,78.8982864 L75.2481028,78.4641371 C75.2481028,78.1375765 75.2481028,77.8106487 75.1396573,77.594492 C74.0518972,74.4417381 73.072705,71.2894737 71.9839657,68.1372093 L67.1980416,53.8973072 C67.1980416,53.6798042 66.871481,53.4627907 66.6534884,53.4627907 L49.3554468,53.4627907 C48.8113831,54.1144431 48.2673195,54.8756426 47.5056304,55.527295 C47.1790698,55.744798 46.9615667,55.744798 46.7444308,55.527295 C46.5274174,55.2017136 46.5274174,54.9840881 46.7444308,54.7670747 C47.1795594,54.2238678 47.6151775,53.7888617 48.0492044,53.3542228 L24.3325581,53.3542228 C24.1154223,53.3542228 24.0069767,53.5712362 23.8984088,53.7888617 L23.3538556,53.6798042 L23.7888617,53.8973072 C22.3746634,58.353978 20.9598531,62.7019584 19.4370869,67.0499388 L16.2823745,76.7243574 L16.173929,76.9418605 C16.0653611,77.3764994 15.8473684,77.8115055 15.955814,78.2461444 L14.9766218,78.3547124 L15.955814,78.3547124 L15.955814,97.0511628 C15.955814,97.4862913 15.955814,97.8123623 16.173929,98.0293758 L16.2823745,98.1379437 C16.3909425,98.3554468 16.826071,98.2468788 17.1531212,98.2468788 L74.4865361,98.2468788 C74.7035496,98.2468788 74.9225214,98.2468788 75.0310894,98.1379437 L75.1396573,98.0293758 C75.1396573,98.0293758 75.2481028,97.9208078 75.2481028,97.4862913 L75.2481028,78.8982864 Z" id="Fill-5"></path>
                </g>
            </g>
        </g>
    </g>
</svg>