<?xml version="1.0" encoding="UTF-8"?>
<svg width="16px" height="16px" viewBox="0 0 16 16" version="1.1" xmlns="http://www.w3.org/2000/svg" xmlns:xlink="http://www.w3.org/1999/xlink">
    <!-- Generator: Sketch 49.1 (51147) - http://www.bohemiancoding.com/sketch -->
    <title>Slice 20</title>
    <desc>Created with Sketch.</desc>
    <defs></defs>
    <g id="Page-1" stroke="none" stroke-width="1" fill="none" fill-rule="evenodd">
        <g id="2.1-I--我的文档-3" transform="translate(-1425.000000, -403.000000)" fill="#666666">
            <g id="Group-7" transform="translate(1406.000000, 313.000000)">
                <g id="fuzhi" transform="translate(19.000000, 90.000000)">
                    <path d="M12.966566,1 L5.77143774,1 C4.67872453,1 3.8022717,1.88717736 3.8022717,2.96916604 L3.8022717,3.83476226 L2.93675472,3.83476226 C1.86562264,3.83476226 1,4.70027925 1,5.77143774 L1,13.0422981 C1,14.1133245 1.86562264,14.9789472 2.93675472,14.9789472 L10.2075094,14.9789472 C11.2786679,14.9789472 12.1441849,14.1133245 12.1441849,13.0422981 L12.1441849,12.1441849 L12.9772906,12.1441849 C14.0701094,12.1441849 14.9464566,11.2570075 14.9464566,10.1750189 L14.9464566,2.96916604 C14.9464566,1.88717736 14.0592792,1 12.966566,1 Z M11.3652302,13.0422981 C11.3652302,13.6805925 10.8458038,14.1999132 10.2075094,14.1999132 L2.93675472,14.1999132 C2.29835472,14.1999132 1.77903396,13.6805925 1.77903396,13.0422981 L1.77903396,5.77143774 C1.77903396,5.1331434 2.29835472,4.61371698 2.93675472,4.61371698 L10.2075094,4.61371698 C10.8458038,4.61371698 11.3652302,5.1331434 11.3652302,5.77143774 L11.3652302,13.0422981 Z M14.1675019,10.1641887 C14.1675019,10.8242491 13.6265208,11.3652302 12.966566,11.3652302 L12.1333547,11.3652302 L12.1333547,5.77143774 C12.1333547,4.70027925 11.2678377,3.83476226 10.1966792,3.83476226 L4.57047547,3.83476226 L4.57047547,2.96916604 C4.57047547,2.30918491 5.1114566,1.76820377 5.77143774,1.76820377 L12.966566,1.76820377 C13.6265208,1.76820377 14.1675019,2.30918491 14.1675019,2.96916604 L14.1675019,10.1641887 Z M8.88749434,9.01729811 C9.10386038,9.01729811 9.27701132,9.19042264 9.28784151,9.40681509 C9.28784151,9.62328679 9.11469057,9.79633208 8.89832453,9.79633208 L6.96164906,9.79633208 L6.96164906,11.7330868 C6.96164906,11.9494528 6.78852453,12.1226038 6.57213208,12.1226038 C6.35576604,12.1226038 6.18261509,11.9494528 6.18261509,11.7330868 L6.18261509,9.79633208 L4.24586038,9.79633208 C4.02949434,9.79633208 3.8563434,9.62328679 3.8563434,9.40681509 C3.8563434,9.19042264 4.02949434,9.01729811 4.24586038,9.01729811 L6.17178491,9.01729811 L6.17178491,7.08062264 C6.17178491,6.8642566 6.34493585,6.69110566 6.56130189,6.69110566 C6.77769434,6.69110566 6.95081887,6.8642566 6.95081887,7.08062264 L6.95081887,9.01729811 L8.88749434,9.01729811 Z" id="Fill-2"></path>
                </g>
            </g>
        </g>
    </g>
</svg>