<?xml version="1.0" encoding="UTF-8"?>
<svg width="20px" height="20px" viewBox="0 0 20 20" version="1.1" xmlns="http://www.w3.org/2000/svg" xmlns:xlink="http://www.w3.org/1999/xlink">
    <!-- Generator: Sketch 49.1 (51147) - http://www.bohemiancoding.com/sketch -->
    <title>Slice 20</title>
    <desc>Created with Sketch.</desc>
    <defs>
        <polygon id="path-1" points="0 0.0396613886 16.6774275 0.0396613886 16.6774275 18 0 18"></polygon>
    </defs>
    <g id="Page-1" stroke="none" stroke-width="1" fill="none" fill-rule="evenodd">
        <g id="2.2-I--我的分享-2" transform="translate(-1421.000000, -289.000000)">
            <g id="shanchu" transform="translate(1421.000000, 289.000000)">
                <g id="Group-6" transform="translate(1.000000, 1.000000)">
                    <mask id="mask-2" fill="white">
                        <use xlink:href="#path-1"></use>
                    </mask>
                    <g id="Clip-2"></g>
                    <path d="M16.1719586,3.11858222 L0.50546894,3.11858222 C0.370414129,3.11755177 0.241257004,3.06291596 0.146455542,2.96666748 C0.0516321559,2.87048477 -0.00103045067,2.74047259 -8.47032947e-21,2.60541778 C-8.47032947e-21,2.32314007 0.225844093,2.09225335 0.50546894,2.09225335 L16.1719586,2.09225335 C16.4516711,2.09225335 16.6774275,2.32314007 16.6774275,2.60541778 C16.6774275,2.88890134 16.4516711,3.11858222 16.1720463,3.11858222 L16.1719586,3.11858222 Z M11.1175104,1.06599026 L5.56000487,1.06599026 C5.42495006,1.06495981 5.29579294,1.010324 5.20099147,0.914075518 C5.10625579,0.817805116 5.05350548,0.687880633 5.05453593,0.552825822 C5.05453593,0.270548112 5.28156395,0.0396613886 5.56000487,0.0396613886 L11.1199878,0.0396613886 C11.3997004,0.0396613886 11.6254568,0.270548112 11.6254568,0.552825822 C11.6254568,0.836309379 11.3997004,1.06599026 11.1199878,1.06599026 L11.1175104,1.06599026 Z M6.06545189,14.4078928 L6.06545189,5.68436054 C6.06545189,5.40208283 6.29120828,5.17117418 6.57092083,5.17117418 C6.85054568,5.17117418 7.07638977,5.40208283 7.07638977,5.68436054 L7.07638977,14.4078928 C7.07638977,14.6914641 6.85054568,14.9210792 6.57092083,14.9210792 C6.43586602,14.9200487 6.30670889,14.8654129 6.21190743,14.7691425 C6.11710597,14.6729598 6.06442144,14.5429476 6.06545189,14.4078928 Z M9.60360292,14.4078928 L9.60360292,5.68436054 C9.60360292,5.40208283 9.82944702,5.17117418 10.1090719,5.17117418 C10.3887844,5.17117418 10.6145408,5.40208283 10.6145408,5.68436054 L10.6145408,14.4078928 C10.6145408,14.6914641 10.3887844,14.9210792 10.1090719,14.9210792 C9.97401705,14.9200487 9.84485993,14.8654129 9.75005847,14.7691425 C9.655257,14.6729598 9.60257247,14.5429476 9.60360292,14.4078928 Z M2.52730085,4.65800974 C2.8069257,4.65800974 3.03276979,4.88889647 3.03276979,5.17117418 L3.03276979,15.9473203 C3.03276979,16.5130816 3.4855542,16.9736711 4.04361998,16.9736711 L12.6338076,16.9736711 C12.9040049,16.9716102 13.1622314,16.8624044 13.3518343,16.6698855 C13.5414592,16.4774543 13.6467844,16.2175177 13.6447454,15.9473203 L13.6447454,5.17117418 C13.6447454,4.88889647 13.8704799,4.65800974 14.1501924,4.65800974 C14.4298173,4.65800974 14.6556614,4.88889647 14.6556614,5.17117418 L14.6556614,16.4605725 C14.6556614,17.3110889 13.9770329,18 13.1392765,18 L3.53823873,18 C3.13296468,17.9969306 2.74553715,17.8330012 2.46119854,17.5442996 C2.17677223,17.2555981 2.01876248,16.8657588 2.02185384,16.4605725 L2.02185384,5.17117418 C2.02185384,4.88889647 2.24761023,4.65800974 2.52730085,4.65800974 Z" id="Fill-1" fill="#666666" mask="url(#mask-2)"></path>
                </g>
            </g>
        </g>
    </g>
</svg>