<?xml version="1.0" encoding="UTF-8"?>
<svg width="20px" height="20px" viewBox="0 0 20 20" version="1.1" xmlns="http://www.w3.org/2000/svg" xmlns:xlink="http://www.w3.org/1999/xlink">
    <!-- Generator: Sketch 49.1 (51147) - http://www.bohemiancoding.com/sketch -->
    <title>Slice 20</title>
    <desc>Created with Sketch.</desc>
    <defs></defs>
    <g id="Page-1" stroke="none" stroke-width="1" fill="none" fill-rule="evenodd">
        <g id="2.1-I--我的文档-1-" transform="translate(-1383.000000, -174.000000)" fill="#666666">
            <g id="文档-copy" transform="translate(1383.000000, 174.000000)">
                <g id="wendang" transform="translate(2.000000, 1.333333)">
                    <path d="M10.8552189,1.05050505 L11.9466877,1.05050505 L11.9466877,3.12221635 C11.9466877,3.41767948 12.1910153,3.65721425 12.4924755,3.65721425 L14.7070707,3.65721425 L14.7070707,4.72727273 L12.4924755,4.72727273 C11.5882014,4.72727273 10.8552189,4.00868934 10.8552189,3.12221635 L10.8552189,1.05050505 Z" id="Fill-4"></path>
                    <polygon id="Fill-5" points="3.32659933 7.52861953 12.0808081 7.52861953 12.0808081 6.47811448 3.32659933 6.47811448"></polygon>
                    <polygon id="Fill-6" points="3.32659933 11.9057239 12.0808081 11.9057239 12.0808081 10.8552189 3.32659933 10.8552189"></polygon>
                    <path d="M1.75715484,1.15588731 C1.43548721,1.15472357 1.17359702,1.4130944 1.17176948,1.73329141 L1.17176948,15.5999612 C1.17176948,15.9195658 1.43397843,16.17745 1.75715484,16.17745 L13.4750834,16.17745 C13.796751,16.1785925 14.0586412,15.9202217 14.0604688,15.5999612 L14.0604688,4.04407155 C14.0604688,2.44939183 12.749424,1.15588731 11.1315657,1.15588731 L1.75715484,1.15588731 Z M1.75715484,0 L11.1315657,0 C13.3957343,0 15.2323232,1.81024618 15.2323232,4.04407155 L15.2323232,15.5999612 C15.2323232,16.5576323 14.4456326,17.3333161 13.4750834,17.3333161 L1.75715484,17.3333161 C0.791323188,17.3375479 0.00482384563,16.5616948 0,15.5999612 L0,1.73329141 C0,0.77568377 0.786605595,0 1.75715484,0 Z" id="Fill-1"></path>
                </g>
            </g>
        </g>
    </g>
</svg>