<?xml version="1.0" encoding="UTF-8"?>
<svg width="16px" height="16px" viewBox="0 0 16 16" version="1.1" xmlns="http://www.w3.org/2000/svg" xmlns:xlink="http://www.w3.org/1999/xlink">
    <!-- Generator: Sketch 49.1 (51147) - http://www.bohemiancoding.com/sketch -->
    <title>Slice 20</title>
    <desc>Created with Sketch.</desc>
    <defs>
        <polygon id="path-1" points="0.00122727273 0.0106363636 13.7585659 0.0106363636 13.7585659 13.7659295 0.00122727273 13.7659295"></polygon>
    </defs>
    <g id="Page-1" stroke="none" stroke-width="1" fill="none" fill-rule="evenodd">
        <g id="2.1-I--我的文档-3" transform="translate(-1425.000000, -371.000000)">
            <g id="Group-7" transform="translate(1406.000000, 313.000000)">
                <g id="编辑" transform="translate(19.000000, 58.000000)">
                    <g id="bianji" transform="translate(0.800000, 0.800000)">
                        <g id="Group-3" transform="translate(0.000000, 0.572727)">
                            <mask id="mask-2" fill="white">
                                <use xlink:href="#path-1"></use>
                            </mask>
                            <g id="Clip-2"></g>
                            <path d="M1.77379773,13.7659295 C0.795252273,13.7659295 0,12.9706773 0,11.9921318 L0,1.78443409 C0,0.805888636 0.795252273,0.0106363636 1.77379773,0.0106363636 L8.65802045,0.0106363636 C8.849475,0.0106363636 9.00486818,0.166131818 9.00486818,0.357565909 C9.00486818,0.549 8.849475,0.704413636 8.65802045,0.704413636 L1.77379773,0.704413636 C1.17822273,0.704413636 0.692181818,1.18885909 0.692181818,1.78611136 L0.692181818,11.9937273 C0.692181818,12.5893841 1.17654545,13.0753432 1.77379773,13.0753432 L11.9814955,13.0753432 C12.5770705,13.0753432 13.0631114,12.5909795 13.0631114,11.9937273 L13.0631114,5.12754545 C13.0631114,4.93611136 13.2185045,4.78061591 13.4100409,4.78061591 C13.5997977,4.78061591 13.7552727,4.93611136 13.7585659,5.12586818 L13.7585659,11.9921318 C13.7585659,12.9706773 12.9633136,13.7659295 11.9847682,13.7659295 L1.77379773,13.7659295 Z" id="Fill-1" fill="#666666" mask="url(#mask-2)"></path>
                        </g>
                        <path d="M2.88816136,11.8088386 C2.81129318,11.8088386 2.73436364,11.7760705 2.67707045,11.720475 C2.58541364,11.6304136 2.56256591,11.493 2.61977727,11.3768182 L4.64892955,7.29245455 C4.66523182,7.26138409 4.68488864,7.23516136 4.70941364,7.21223182 L11.6459795,0.275747727 C11.8194545,0.102293182 12.0502023,0.00736363636 12.2956568,0.00736363636 C12.5411114,0.00736363636 12.7717773,0.102293182 12.9452523,0.275747727 L14.1201818,1.45061591 C14.2936568,1.62407045 14.3885659,1.85481818 14.3885659,2.10027273 C14.3885659,2.34572727 14.2936568,2.57649545 14.1201818,2.74986818 L7.18529318,9.68970682 C7.16236364,9.71425227 7.13456591,9.73390909 7.10507045,9.75027273 L3.02072727,11.7793636 C2.97981818,11.7973227 2.93402045,11.8088386 2.88816136,11.8088386 Z M3.55095,10.8498682 L6.46690909,9.40007045 L4.99905,7.93229318 L3.55095,10.8498682 Z M12.2972523,0.603020455 C12.2105659,0.603020455 12.1303432,0.637384091 12.0697773,0.69795 L5.34438409,7.42334318 L6.977475,9.05641364 L13.7012727,2.32936364 C13.8272727,2.20334318 13.8272727,1.99879773 13.7012727,1.87279773 L12.5247273,0.696272727 C12.4641614,0.635706818 12.3823432,0.603020455 12.2972523,0.603020455 Z" id="Fill-4" fill="#666666"></path>
                    </g>
                </g>
            </g>
        </g>
    </g>
</svg>