<?xml version="1.0" encoding="UTF-8"?>
<svg width="16px" height="16px" viewBox="0 0 16 16" version="1.1" xmlns="http://www.w3.org/2000/svg" xmlns:xlink="http://www.w3.org/1999/xlink">
    <!-- Generator: Sketch 49.1 (51147) - http://www.bohemiancoding.com/sketch -->
    <title>9.4 我发布的课程</title>
    <desc>Created with Sketch.</desc>
    <defs></defs>
    <g id="Page-1" stroke="none" stroke-width="1" fill="none" fill-rule="evenodd">
        <g id="2.6-I--项目-2-" transform="translate(-683.000000, -570.000000)" fill="#E52E2E">
            <g id="Group-2" transform="translate(683.000000, 570.000000)">
                <path d="M8,15.1111111 C6.24101388,15.1111111 4.63979023,14.4634745 3.3986671,13.4046192 C3.37288321,13.3875762 3.35015842,13.3692221 3.33005572,13.345624 C3.25270403,13.2770147 3.25226702,13.1415442 3.25226702,13.1415442 C3.25226702,12.9628105 3.39691904,12.8181629 3.57609527,12.8181629 C3.75439747,12.8181629 4.09264722,13.1415442 4.09264722,13.1415442 C5.17819294,13.9683515 6.5294439,14.4647855 8,14.4647855 C11.5704141,14.4647855 14.4647657,11.5705229 14.4647657,8.0002185 C14.4647657,4.42947713 11.5704141,1.53565149 8,1.53565149 C4.42958593,1.53565149 1.53523435,4.42947713 1.53523435,8.0002185 C1.53523435,9.31428279 2.54692451,11.5556648 2.54692451,11.5556648 C2.54910958,11.5696489 2.55522779,11.5818849 2.55522779,11.595869 C2.55522779,11.7746027 2.41101278,11.9192503 2.23227357,11.9192503 C2.05397138,11.9192503 1.84770021,11.5556648 1.84770021,11.5556648 C1.24112313,10.5086086 0.888888889,9.29680272 0.888888889,8.0002185 C0.888888889,4.0728837 4.07298154,0.888888889 8,0.888888889 C11.9274555,0.888888889 15.1111111,4.0728837 15.1111111,8.0002185 C15.1111111,11.9271163 11.9274555,15.1111111 8,15.1111111 Z M7.52592593,4.58612958 C7.52592593,4.20456631 7.73812135,3.73333333 8,3.73333333 C8.26187865,3.73333333 8.47407407,4.20456631 8.47407407,4.58612958 L8.47407407,8.73148528 C8.47407407,9.11304855 8.26187865,9.42222222 8,9.42222222 C7.73812135,9.42222222 7.52592593,9.11304855 7.52592593,8.73148528 L7.52592593,4.58612958 Z M8,10.3703704 C8.26187865,10.3703704 8.47407407,10.5824941 8.47407407,10.8442842 C8.47407407,11.1060744 8.26187865,11.3185185 8,11.3185185 C7.73812135,11.3185185 7.52592593,11.1060744 7.52592593,10.8442842 C7.52592593,10.5824941 7.73812135,10.3703704 8,10.3703704 Z" id="Page-1"></path>
            </g>
        </g>
    </g>
</svg>