<?xml version="1.0" encoding="UTF-8"?>
<svg width="20px" height="20px" viewBox="0 0 20 20" version="1.1" xmlns="http://www.w3.org/2000/svg" xmlns:xlink="http://www.w3.org/1999/xlink">
    <!-- Generator: Sketch 49.1 (51147) - http://www.bohemiancoding.com/sketch -->
    <title>Slice 20</title>
    <desc>Created with Sketch.</desc>
    <defs></defs>
    <g id="Page-1" stroke="none" stroke-width="1" fill="none" fill-rule="evenodd">
        <g id="2.1-I--我的文档-3" transform="translate(-1242.000000, -174.000000)" fill="#4A4A4A">
            <g id="wenjianjia-copy" transform="translate(1242.000000, 174.000000)">
                <path d="M18.7765487,12.7923532 L15.9274365,12.7923532 L15.9274365,9.88821276 C15.9296134,9.71255678 15.8615111,9.5432735 15.738168,9.41756671 C15.6147451,9.29191948 15.446167,9.22003315 15.2695404,9.21794862 C14.9021076,9.2230706 14.6082292,9.52294441 14.6127427,9.88821276 L14.6127427,12.7923532 L11.9097608,12.7923532 C11.5423879,12.7974752 11.2485096,13.097349 11.2530431,13.4625975 C11.2508662,13.6382535 11.3189685,13.8075368 11.4423714,13.9332436 C11.5657145,14.0589504 11.7343126,14.1307771 11.9109991,14.1329411 L14.6127427,14.1329411 L14.6127427,16.8883457 C14.6105659,17.0640017 14.6786682,17.233285 14.8020911,17.3589917 C14.9254341,17.4846985 15.0940122,17.5565055 15.2707187,17.5586892 C15.6381515,17.5535673 15.9320299,17.2535942 15.9274365,16.8883457 L15.9274365,14.1329411 L18.7765487,14.1329411 C18.9531753,14.1304595 19.1216736,14.0583349 19.2447769,13.9323899 C19.3679602,13.8065441 19.4357629,13.6370822 19.4332665,13.4614461 C19.4354434,13.2858695 19.367421,13.1165862 19.2439981,12.9908794 C19.1205751,12.8651726 18.951997,12.7933459 18.7753704,12.7911819 L18.7765487,12.7923532 Z M18.1136868,4.39317512 L9.62891123,4.39317512 L9.17024437,2.93809067 C9.00415253,2.38434538 8.49378993,2.0035894 7.91288942,2 L1.98618078,2 C1.25666755,2 0.666666667,2.60321924 0.666666667,3.34650499 L0.666666667,16.2121045 C0.666666667,16.9565468 1.25666755,17.5586892 1.98618078,17.5586892 L10.5636639,17.5586892 C10.9324696,17.5535444 11.2274099,17.2522339 11.2228798,16.885357 C11.2250647,16.7089976 11.1567117,16.5389596 11.0328343,16.4126923 C10.9090572,16.2864251 10.7398384,16.214298 10.5625013,16.2121045 L1.98618078,16.2121045 L1.98618078,5.73973993 L18.1136868,5.73973993 L18.1136868,8.50742944 C18.111502,8.68386857 18.179855,8.85390661 18.3037323,8.98017385 C18.4276096,9.1064411 18.5967283,9.17856817 18.7740853,9.1807617 C19.142871,9.17561689 19.4378313,8.87432633 19.4332811,8.50742944 L19.4332811,5.73973993 C19.4332811,4.99647412 18.8433003,4.3943317 18.1136868,4.3943317 L18.1136868,4.39317512 Z M1.94985753,4.40474354 L1.94985753,3.28319087 L7.87691811,3.28319087 L8.205413,4.40598287 L1.94985753,4.40598287 L1.94985753,4.40474354 Z" id="wenjianjia"></path>
            </g>
        </g>
    </g>
</svg>