<?xml version="1.0" encoding="UTF-8"?>
<svg width="20px" height="20px" viewBox="0 0 20 20" version="1.1" xmlns="http://www.w3.org/2000/svg" xmlns:xlink="http://www.w3.org/1999/xlink">
    <!-- Generator: Sketch 49.1 (51147) - http://www.bohemiancoding.com/sketch -->
    <title>Slice 20</title>
    <desc>Created with Sketch.</desc>
    <defs>
        <polygon id="path-1" points="0.00131707317 0.0087804878 17.9824171 0.0087804878 17.9824171 14.6195561 0.00131707317 14.6195561"></polygon>
    </defs>
    <g id="Page-1" stroke="none" stroke-width="1" fill="none" fill-rule="evenodd">
        <g id="2.1-I--我的文档-3-复制" transform="translate(-699.000000, -289.000000)">
            <g id="文件夹" transform="translate(699.000000, 289.000000)">
                <g id="wenjianjia-(1)" transform="translate(1.000000, 3.000000)">
                    <mask id="mask-2" fill="white">
                        <use xlink:href="#path-1"></use>
                    </mask>
                    <g id="Clip-2"></g>
                    <path d="M16.8585366,2.25654146 L7.61217805,2.25654146 L6.79065366,0.348168293 C6.70181707,0.142287805 6.49900976,0.00886829268 6.2747122,0.0087804878 L1.12388049,0.0087804878 C0.503165854,0.0087804878 0,0.511946341 0,1.13266098 L0,13.4955659 C0,14.1163024 0.503165854,14.6195561 1.12388049,14.6195561 L16.8585366,14.6195561 C17.4792512,14.6195561 17.9824171,14.1163024 17.9824171,13.4955659 L17.9824171,3.38053171 C17.9824171,2.75979512 17.4792512,2.25654146 16.8585366,2.25654146 Z M1.12388049,1.13266098 L5.90496585,1.13266098 L6.38934146,2.25654146 L1.12388049,2.25654146 L1.12388049,1.13266098 Z M1.12388049,13.4955659 L16.8585366,13.4955659 L16.8585366,3.38053171 L1.12388049,3.38053171 L1.12388049,13.4955659 Z" id="Fill-1" fill="#666666" mask="url(#mask-2)"></path>
                </g>
            </g>
        </g>
    </g>
</svg>