<?xml version="1.0" encoding="UTF-8"?>
<svg width="20px" height="20px" viewBox="0 0 20 20" version="1.1" xmlns="http://www.w3.org/2000/svg" xmlns:xlink="http://www.w3.org/1999/xlink">
    <!-- Generator: Sketch 49.1 (51147) - http://www.bohemiancoding.com/sketch -->
    <title>Slice 20</title>
    <desc>Created with Sketch.</desc>
    <defs></defs>
    <g id="Page-1" stroke="none" stroke-width="1" fill="none" fill-rule="evenodd">
        <g id="2.1-I--我的文档-1-" transform="translate(-417.000000, -487.000000)" fill="#666666">
            <g id="Group-3" transform="translate(390.000000, 118.000000)">
                <g id="图标">
                    <g id="Group-3">
                        <g id="图标" transform="translate(27.000000, 49.000000)">
                            <g id="关注-copy-2" transform="translate(0.000000, 320.000000)">
                                <g id="not-followed" transform="translate(0.000000, 2.000000)">
                                    <path d="M15.9360237,8.79895858 L9.20525444,15.5317633 L2.60040237,8.9492071 C0.836071006,7.18440237 0.782461538,4.25633136 2.48373964,2.55495858 C4.21254438,0.827621302 7.02792899,0.812639053 8.7616568,2.52168047 C9.00426036,2.76113609 9.39386982,2.7619645 9.63749112,2.52371598 C10.4637633,1.71436686 11.5734201,1.25957396 12.7299408,1.25623669 C12.8959053,1.25559763 13.0546509,1.18892308 13.1714083,1.07095858 C13.2880947,0.953088757 13.3530888,0.793585799 13.352071,0.627715976 C13.3503195,0.282319527 13.0620355,0.000426035503 12.7234556,0.00558579882 C11.444071,0.00930177515 10.2033136,0.444946746 9.20239053,1.24201183 C6.96745562,-0.54783432 3.67169231,-0.40139645 1.60030769,1.67015385 C-0.549183432,3.81966864 -0.528189349,7.48229586 1.63240237,9.74662722 C1.66345562,9.78693491 1.69813018,9.82428402 1.73595266,9.85822485 C1.75138462,9.87254438 1.76700592,9.88549112 1.78262722,9.8979645 L8.76461538,16.8583195 C8.88175148,16.9755503 9.04078107,17.0414675 9.20655621,17.0414675 C9.37230769,17.0414675 9.5312426,16.9755503 9.64840237,16.8583195 L16.8199053,9.68440237 C17.064071,9.44014201 17.0639763,9.04414201 16.819716,8.79997633 C16.5755266,8.55578698 16.1795503,8.55588166 15.9353846,8.80016568 L15.9360237,8.79895858 Z" id="Fill-1"></path>
                                    <path d="M19.3710296,3.01261538 L17.003503,3.01261538 L17.003503,0.644473373 C17.003503,0.420994083 16.8843314,0.214532544 16.6908402,0.102769231 C16.4973254,-0.00892307692 16.2589586,-0.00892307692 16.0654675,0.102769231 C15.8719527,0.214532544 15.7527811,0.420994083 15.7527811,0.644473373 L15.7527811,3.01261538 L13.3855385,3.01261538 C13.040497,3.01261538 12.7607337,3.29230769 12.7607337,3.63734911 C12.7607337,3.98239053 13.040497,4.26215385 13.3855385,4.26215385 L15.7527811,4.26215385 L15.7527811,6.62984615 C15.7527811,6.85332544 15.8719527,7.05976331 16.0654675,7.1715503 C16.2589586,7.2832426 16.4973254,7.2832426 16.6908402,7.1715503 C16.8843314,7.05976331 17.003503,6.85332544 17.003503,6.62984615 L17.003503,4.26215385 L19.3710296,4.26215385 C19.716071,4.26215385 19.9957396,3.98239053 19.9957396,3.63734911 C19.9957396,3.29230769 19.716071,3.01261538 19.3710296,3.01261538 Z" id="Fill-3"></path>
                                </g>
                            </g>
                        </g>
                    </g>
                </g>
            </g>
        </g>
    </g>
</svg>