<?xml version="1.0" encoding="UTF-8"?>
<svg width="20px" height="20px" viewBox="0 0 20 20" version="1.1" xmlns="http://www.w3.org/2000/svg" xmlns:xlink="http://www.w3.org/1999/xlink">
    <!-- Generator: Sketch 49.1 (51147) - http://www.bohemiancoding.com/sketch -->
    <title>8.1 课程内容 copy</title>
    <desc>Created with Sketch.</desc>
    <defs>
        <polygon id="path-1" points="0 6.35806422e-06 17.9804757 6.35806422e-06 17.9804757 19.7099991 0 19.7099991"></polygon>
    </defs>
    <g id="Page-1" stroke="none" stroke-width="1" fill="none" fill-rule="evenodd">
        <g id="2.6-I--项目-软硬件2" transform="translate(-747.000000, -1091.000000)">
            <g id="Group-12" transform="translate(747.000000, 1091.000000)">
                <g id="附件-copy" transform="translate(1.000000, 0.000000)">
                    <path d="M8.76571803,9.97212019 C8.56795914,9.97212019 8.37280674,10.0556358 8.24448735,10.2149828 L5.47222051,13.6758388 C5.27710153,13.9211364 5.19145502,14.2223113 5.23700172,14.5284195 C5.27436137,14.7939872 5.4080274,15.0317586 5.6112666,15.2113758 L9.26031575,10.8879464 C9.46355494,10.6475819 9.4207484,10.2960319 9.16671611,10.1062955 C9.16136947,10.1012358 9.15341634,10.0961446 9.14803628,10.0910849 C9.03305008,10.0100675 8.89677757,9.97212019 8.76571803,9.97212019 M4.03126731,17.1391296 C3.51802318,17.1391296 2.99939899,16.9771896 2.5716677,16.6457833 C1.57451913,15.8766866 1.42477976,14.4828195 2.24024278,13.5391969 L9.34318869,5.30210554 C9.35117523,5.29195464 9.35926203,5.28183537 9.36995531,5.27171609 C9.869766,4.70756641 10.575556,4.36107604 11.3507856,4.2952375 C12.1261822,4.23199202 12.8825983,4.45717755 13.4814889,4.93028537 C14.0883327,5.41338597 14.4706844,6.0888477 14.5534236,6.83517599 C14.6390701,7.5815359 14.4171511,8.31761842 13.9306402,8.91215756 L8.50112613,15.5403471 C8.34604012,15.7274589 8.06266814,15.7629396 7.86216909,15.6161785 C7.66427654,15.4694173 7.6269503,15.2012565 7.78203631,15.0115201 L13.2088102,8.38592354 C13.9172068,7.52075699 13.7781941,6.29376305 12.893325,5.59053656 C12.4816002,5.26415826 11.9604029,5.10990253 11.4283453,5.15287783 C10.8936812,5.19585314 10.4097768,5.43624921 10.0650521,5.8232483 C10.0597054,5.83077451 10.0543588,5.83586578 10.0462386,5.84351848 L2.94329267,14.0830764 C2.44608847,14.657377 2.53694795,15.5099261 3.1463982,15.9779742 C3.71317558,16.415633 4.53381816,16.365005 5.03650268,15.8792797 C4.65418442,15.5604592 4.40553219,15.1278917 4.33605927,14.6447595 C4.25853298,14.1134659 4.40553219,13.5847969 4.74778405,13.1546644 L7.5200509,9.69384007 C7.76856946,9.38267231 8.12950115,9.1803184 8.53845236,9.12463075 C8.94479709,9.06903797 9.35391538,9.16513948 9.6853403,9.39538465 C9.70138022,9.40800213 9.71742015,9.4181214 9.73349349,9.43070725 C10.3777972,9.91902561 10.4846966,10.812115 9.96871228,11.4217066 L5.83849884,16.3169384 C5.8331522,16.321998 5.82780556,16.3295559 5.82245892,16.3346155 C5.36792759,16.863411 4.70233761,17.1391296 4.03126731,17.1391296" id="Fill-1" fill="#999999"></path>
                    <g id="Group-5">
                        <mask id="mask-2" fill="white">
                            <use xlink:href="#path-1"></use>
                        </mask>
                        <g id="Clip-4"></g>
                        <path d="M2.59459459,0.864671302 C1.65012973,0.864671302 0.88212973,1.61746611 0.88212973,2.54323205 L0.88212973,17.1667798 C0.88212973,18.0925457 1.65012973,18.8453405 2.59459459,18.8453405 L15.3858811,18.8453405 C16.3303784,18.8453405 17.0983459,18.0925457 17.0983459,17.1667798 L17.0983459,6.74203408 C17.0983459,6.38092782 16.9401081,6.03508092 16.6677405,5.7934109 L11.4187459,1.18766096 C11.1800757,0.979180038 10.8739784,0.864671302 10.5521838,0.864671302 L2.59459459,0.864671302 Z M15.3858811,19.7100054 L2.59459459,19.7100054 C1.16503784,19.7100054 0,18.5680335 0,17.1667798 L0,2.54323205 C0,1.14197827 1.16503784,6.35806422e-06 2.59459459,6.35806422e-06 L10.5548432,6.35806422e-06 C11.0918919,6.35806422e-06 11.6082811,0.19322793 12.0077189,0.544288446 L17.2540541,5.15003838 C17.715827,5.55437947 17.9804757,6.13429851 17.9804757,6.74203408 L17.9804757,17.1667798 C17.9804757,18.5680335 16.8155676,19.7100054 15.3858811,19.7100054 Z" id="Fill-3" fill="#999999" mask="url(#mask-2)"></path>
                    </g>
                </g>
            </g>
        </g>
    </g>
</svg>