<?xml version="1.0" encoding="UTF-8"?>
<svg width="20px" height="20px" viewBox="0 0 20 20" version="1.1" xmlns="http://www.w3.org/2000/svg" xmlns:xlink="http://www.w3.org/1999/xlink">
    <!-- Generator: Sketch 49.1 (51147) - http://www.bohemiancoding.com/sketch -->
    <title>Slice 20</title>
    <desc>Created with Sketch.</desc>
    <defs>
        <polygon id="path-1" points="0.00147742818 0.0300902873 17.9483411 0.0300902873 17.9483411 17.9999754 0.00147742818 17.9999754"></polygon>
    </defs>
    <g id="Page-1" stroke="none" stroke-width="1" fill="none" fill-rule="evenodd">
        <g id="2.1-I--我的文档-1-" transform="translate(-417.000000, -447.000000)">
            <g id="Group-3" transform="translate(390.000000, 118.000000)">
                <g id="图标">
                    <g id="收入-copy-2" transform="translate(27.000000, 329.000000)">
                        <g id="shouru" transform="translate(1.000000, 1.000000)">
                            <mask id="mask-2" fill="white">
                                <use xlink:href="#path-1"></use>
                            </mask>
                            <g id="Clip-2"></g>
                            <path d="M12.4016553,1.9085171 C11.7379453,0.784859097 10.5542791,0.0300902873 9.20056088,0.0300902873 C7.89722298,0.0300902873 6.74950752,0.727362517 6.07380575,1.78155677 C2.62359234,2.44044049 0,5.59834473 0,9.39597538 L0,10.2537702 C0,14.5258276 3.32083995,17.9999754 7.4035896,17.9999754 L10.5447497,17.9999754 C14.6274993,17.9999754 17.9483393,14.5258276 17.9483393,10.2537702 L17.9483393,9.39597538 C17.9507524,5.79484268 15.585907,2.77352668 12.4016553,1.9085171 Z M9.20056088,1.12267305 C10.6980821,1.12267305 11.9176252,2.39734884 11.9176252,3.96433379 C11.9176252,4.25422982 11.8745335,4.53210944 11.7954665,4.795658 L6.60331601,4.795658 C6.52666211,4.53210944 6.48115732,4.25422982 6.48115732,3.96433379 C6.48357045,2.39734884 7.70311354,1.12267305 9.20056088,1.12267305 Z M16.9060629,10.2537702 C16.9060629,13.922052 14.0525089,16.9073926 10.5471628,16.9073926 L7.4035896,16.9073926 C3.8982435,16.9073926 1.04468947,13.922052 1.04468947,10.2537702 L1.04468947,9.39597538 C1.04468947,6.40103146 2.94466211,3.86610944 5.55151026,3.0322736 C5.48207114,3.33179754 5.43888098,3.6432394 5.43888098,3.96433379 C5.43888098,4.24942818 5.47005472,4.52740629 5.52516279,4.795658 L4.99806566,4.795658 C4.72247606,4.795658 4.49970451,5.02815595 4.49970451,5.31563885 C4.49970451,5.60314637 4.72247606,5.83554583 4.99806566,5.83554583 L13.2833844,5.83554583 C13.5588755,5.83554583 13.7817209,5.60314637 13.7817209,5.31563885 C13.7817209,5.02815595 13.5588755,4.795658 13.2833844,4.795658 L12.8736197,4.795658 C12.9287524,4.52740629 12.9599015,4.24942818 12.9599015,3.96433379 C12.9599015,3.71029001 12.933554,3.461171 12.8903639,3.21916826 C15.2384897,4.19912175 16.9036744,6.59272777 16.9036744,9.39358687 L16.9036744,10.2537702 L16.9060629,10.2537702 Z M10.9640438,10.692197 C11.2396088,10.692197 11.4623803,10.4598222 11.4623803,10.1723146 C11.4623803,9.88480711 11.2396088,9.65243228 10.9640438,9.65243228 L9.91465116,9.65243228 L10.9113242,8.61013133 C11.1054337,8.4064186 11.1054337,8.07823256 10.9113242,7.87459371 C10.7172148,7.67088098 10.4009713,7.67088098 10.2092503,7.87459371 L8.9753762,9.16360055 L7.74379207,7.87459371 C7.54978112,7.67088098 7.23582763,7.67088098 7.04184131,7.87459371 C6.84773187,8.07823256 6.84773187,8.4064186 7.04184131,8.61013133 L8.03851436,9.65243228 L6.98912175,9.65243228 C6.71355677,9.65243228 6.49078523,9.88480711 6.49078523,10.1723146 C6.49078523,10.4598222 6.71355677,10.692197 6.98912175,10.692197 L8.48184131,10.692197 L8.48184131,11.7320848 L6.98912175,11.7320848 C6.71355677,11.7320848 6.49078523,11.9644596 6.49078523,12.2520657 C6.49078523,12.5395732 6.71355677,12.771948 6.98912175,12.771948 L8.48184131,12.771948 L8.48184131,14.1592531 C8.48184131,14.4467606 8.70461286,14.6791354 8.97778933,14.6791354 C9.25325581,14.6791354 9.47612585,14.4467606 9.47612585,14.1592531 L9.47612585,12.771948 L10.9688454,12.771948 C11.2443365,12.771948 11.4671819,12.5395732 11.4671819,12.2520657 C11.4671819,11.9644596 11.2443365,11.7320848 10.9688454,11.7320848 L9.47612585,11.7320848 L9.47612585,10.692197 L10.9640438,10.692197 Z" id="Fill-1" fill="#666666" mask="url(#mask-2)"></path>
                        </g>
                    </g>
                </g>
            </g>
        </g>
    </g>
</svg>