<?xml version="1.0" encoding="UTF-8"?>
<svg width="16px" height="16px" viewBox="0 0 16 16" version="1.1" xmlns="http://www.w3.org/2000/svg" xmlns:xlink="http://www.w3.org/1999/xlink">
    <!-- Generator: Sketch 49.1 (51147) - http://www.bohemiancoding.com/sketch -->
    <title>Slice 20</title>
    <desc>Created with Sketch.</desc>
    <defs>
        <polygon id="path-1" points="0.00131707317 0.011420231 14.3877293 0.011420231 14.3877293 13.3243902 0.00131707317 13.3243902"></polygon>
    </defs>
    <g id="Page-1" stroke="none" stroke-width="1" fill="none" fill-rule="evenodd">
        <g id="2.1-I--我的文档-3" transform="translate(-1425.000000, -339.000000)">
            <g id="Group-7" transform="translate(1406.000000, 313.000000)">
                <g id="yidongdao" transform="translate(19.000000, 26.000000)">
                    <g id="Group-4" transform="translate(0.800000, 0.800000)">
                        <mask id="mask-2" fill="white">
                            <use xlink:href="#path-1"></use>
                        </mask>
                        <g id="Clip-2"></g>
                        <path d="M13.3430049,7.94403659 C13.3430049,8.23179512 13.5731415,8.46193171 13.8608341,8.46193171 C14.1485927,8.46193171 14.3787293,8.23179512 14.3787293,7.94403659 C14.3787293,7.6563439 14.1485927,7.42611951 13.8608341,7.42611951 C13.5731415,7.42611951 13.3430049,7.6653439 13.3430049,7.94403659 Z" id="Fill-1" fill="#4A4A4A" mask="url(#mask-2)"></path>
                        <path d="M13.8608341,9.48876585 C13.5731415,9.48876585 13.3430049,9.71890244 13.3430049,10.006661 L13.3430049,11.3031659 C13.3430049,11.8696171 12.882622,12.329978 12.3161707,12.329978 L2.06075854,12.329978 C1.49430732,12.329978 1.0340122,11.8696171 1.0340122,11.3031659 L1.0340122,2.05656585 C1.0340122,1.49011463 1.49430732,1.02981951 2.06075854,1.02981951 L5.6321122,1.02981951 L6.96281707,3.32973659 C7.06888537,3.50953902 7.26490976,3.58327317 7.47173415,3.58507317 L12.3251707,3.58507317 C12.891622,3.58507317 13.3520049,4.0454561 13.3520049,4.61190732 L13.3520049,5.89227805 C13.3520049,6.17994878 13.5821415,6.41019512 13.8698341,6.41019512 C14.1575927,6.41019512 14.3877293,6.17994878 14.3877293,5.89227805 L14.3877293,4.61190732 C14.3877293,3.47900488 13.4688732,2.55834878 12.3341927,2.55834878 L7.71087073,2.55834878 L6.37296585,0.267365854 C6.25789756,0.0623414634 6.08529512,0.00480731707 5.93780488,0.0120073171 L2.05355854,0.0120073171 C0.920656098,0.0120073171 0,0.930863415 0,2.06556585 L0,11.2708317 C0,12.4037341 0.918856098,13.3243902 2.05355854,13.3243902 L12.3179707,13.3243902 C13.4508732,13.3243902 14.3715293,12.4055341 14.3715293,11.2708317 L14.3715293,9.99766098 C14.3697293,9.71890244 14.1395927,9.48876585 13.8608341,9.48876585 Z" id="Fill-3" fill="#4A4A4A" mask="url(#mask-2)"></path>
                        <path d="M8.2269878,10.490378 C8.4248122,10.6881805 8.75201707,10.6881805 8.95704146,10.490378 L11.1490683,8.29832927 C11.3468927,8.10050488 11.3468927,7.7804122 11.1490683,7.58440976 L8.96604146,5.39956098 C8.76821707,5.20175854 8.44812439,5.20175854 8.25212195,5.39956098 L8.24312195,5.40849512 C8.04538537,5.60629756 8.04538537,5.92639024 8.24312195,6.12241463 L9.55769268,7.43691951 L3.5964878,7.43691951 C3.31772927,7.43691951 3.08757073,7.6671439 3.08757073,7.94583659 C3.08757073,8.22459512 3.31772927,8.45473171 3.5964878,8.45473171 L9.54149268,8.45473171 L8.2269878,9.76923659 C8.03096341,9.95623902 8.03096341,10.2853537 8.2269878,10.490378 Z" id="Fill-5" fill="#4A4A4A" mask="url(#mask-2)"></path>
                    </g>
                </g>
            </g>
        </g>
    </g>
</svg>