<?xml version="1.0" encoding="UTF-8"?>
<svg width="20px" height="20px" viewBox="0 0 20 20" version="1.1" xmlns="http://www.w3.org/2000/svg" xmlns:xlink="http://www.w3.org/1999/xlink">
    <!-- Generator: Sketch 49.1 (51147) - http://www.bohemiancoding.com/sketch -->
    <title>Slice 20</title>
    <desc>Created with Sketch.</desc>
    <defs></defs>
    <g id="Page-1" stroke="none" stroke-width="1" fill="none" fill-rule="evenodd">
        <g id="2.1-I--我的文档-1-" transform="translate(-417.000000, -567.000000)" fill="#666666">
            <g id="Group-3" transform="translate(390.000000, 118.000000)">
                <g id="图标">
                    <g id="Group-3">
                        <g id="图标" transform="translate(27.000000, 49.000000)">
                            <g id="消息" transform="translate(0.000000, 400.000000)">
                                <g id="xiaoxi" transform="translate(1.000000, 1.000000)">
                                    <path d="M7.03222472,6.86364045 C7.43382022,6.86364045 7.63395506,7.06501124 7.63395506,7.46660674 L7.63395506,8.67123596 C7.63395506,9.07386517 7.43382022,9.27411236 7.03222472,9.27411236 C6.62957303,9.27411236 6.42932584,9.07386517 6.42932584,8.67123596 L6.42932584,7.46660674 C6.42932584,7.06386517 6.62957303,6.86364045 7.03222472,6.86364045 Z M11.0500449,6.86364045 C11.4515506,6.86364045 11.6517753,7.06501124 11.6517753,7.46660674 L11.6517753,8.67123596 C11.6517753,9.07386517 11.4515506,9.27411236 11.0500449,9.27411236 C10.6473034,9.27411236 10.4470787,9.07386517 10.4470787,8.67123596 L10.4470787,7.46660674 C10.4470787,7.06386517 10.6473034,6.86364045 11.0500449,6.86364045 Z" id="Fill-1"></path>
                                    <path d="M15.2173483,14.9935506 C16.8004719,13.3495056 17.683191,11.1548989 17.6795056,8.87258427 C17.6795056,3.99883146 13.7147191,0.0327865169 8.83979775,0.0327865169 C3.96480899,0.0316629213 0,3.99644944 0,8.87258427 C0,13.7463596 3.96480899,17.7123146 8.83865169,17.7123146 L15.2783596,17.7123146 C15.5179101,17.9977753 15.9220449,18.0815955 16.2554382,17.9148989 C16.5887416,17.7482022 16.7642247,17.3746067 16.6795955,17.0116404 C16.5948989,16.6486742 16.2722921,16.3912135 15.899573,16.389191 L15.2173483,14.9935506 Z M14.0690787,16.4191236 L8.83979775,16.4191236 C4.67424719,16.4140225 1.29880899,13.0381573 1.29442697,8.87258427 C1.29941573,4.70748315 4.67467416,1.33222472 8.83979775,1.32721348 C13.0048315,1.33222472 16.3800899,4.70748315 16.385191,8.87258427 C16.3890337,10.821236 15.6352809,12.695191 14.2831011,14.0984494 C13.6790787,14.7243371 13.7284944,15.5918652 14.0690787,16.4191236 Z" id="Fill-3"></path>
                                </g>
                            </g>
                        </g>
                    </g>
                </g>
            </g>
        </g>
    </g>
</svg>