<?xml version="1.0" encoding="UTF-8"?>
<svg width="20px" height="20px" viewBox="0 0 20 20" version="1.1" xmlns="http://www.w3.org/2000/svg" xmlns:xlink="http://www.w3.org/1999/xlink">
    <!-- Generator: Sketch 49.1 (51147) - http://www.bohemiancoding.com/sketch -->
    <title>Slice 20</title>
    <desc>Created with Sketch.</desc>
    <defs>
        <polygon id="path-1" points="0.00158998896 0.0264733162 15.6493868 0.0264733162 15.6493868 16.1648612 0.00158998896 16.1648612"></polygon>
    </defs>
    <g id="Page-1" stroke="none" stroke-width="1" fill="none" fill-rule="evenodd">
        <g id="2.1-I--我的文档-1-" transform="translate(-417.000000, -407.000000)">
            <g id="Group-3" transform="translate(390.000000, 118.000000)">
                <g id="图标">
                    <g id="Group-3">
                        <g id="图标" transform="translate(27.000000, 49.000000)">
                            <g id="订单-copy-2" transform="translate(0.000000, 240.000000)">
                                <g id="dingdan-(1)" transform="translate(2.000000, 0.000000)">
                                    <g id="Group-5" transform="translate(0.000000, 2.782481)">
                                        <mask id="mask-2" fill="white">
                                            <use xlink:href="#path-1"></use>
                                        </mask>
                                        <g id="Clip-3"></g>
                                        <polygon id="Fill-1" fill="#666666" mask="url(#mask-2)" points="3.68254693 6.94509827 11.9812293 6.94509827 11.9812293 6.01015826 3.68254693 6.01015826"></polygon>
                                        <polygon id="Fill-2" fill="#666666" mask="url(#mask-2)" points="3.68254693 11.0871255 8.75954067 11.0871255 8.75954067 10.1523975 3.68254693 10.1523975"></polygon>
                                        <path d="M13.8077556,16.1648612 L1.84163121,16.1648612 C1.59319544,16.1648612 1.35202061,16.1161016 1.12459919,16.0199338 C0.905233714,15.9271844 0.70844608,15.7944733 0.539403754,15.625431 C0.370467427,15.4564947 0.237676849,15.2596275 0.144927494,15.0402621 C0.0486536621,14.8129466 0,14.5716658 0,14.323336 L0,1.86799853 C0,1.61956275 0.0487596614,1.37846743 0.144927494,1.15104601 C0.237676849,0.93170703 0.370467427,0.734813397 0.539403754,0.56587707 C0.70844608,0.396834744 0.905233714,0.264150166 1.12459919,0.17129481 C1.35202061,0.0752329775 1.59319544,0.0264733162 1.84163121,0.0264733162 L3.65458962,0.0264733162 L3.65458962,0.948269415 L1.84163121,0.948269415 C1.33439823,0.948269415 0.921796099,1.36087155 0.921796099,1.86799853 L0.921796099,14.32323 C0.921796099,14.8304365 1.33439823,15.2430651 1.84163121,15.2430651 L13.8077556,15.2430651 C14.3149621,15.2430651 14.7276967,14.8304365 14.7276967,14.32323 L14.7276967,1.86799853 C14.7276967,1.36087155 14.3149621,0.948269415 13.8077556,0.948269415 L12.0004947,0.948269415 L12.0004947,0.0264733162 L13.8077556,0.0264733162 C14.0561914,0.0264733162 14.2973662,0.0752329775 14.5247876,0.17129481 C14.7441531,0.264150166 14.9410202,0.396940743 15.1100626,0.56587707 C15.2791049,0.734919396 15.41171,0.93170703 15.5045653,1.15104601 C15.6006272,1.37846743 15.6493868,1.61966875 15.6493868,1.86810453 L15.6493868,14.323336 C15.6493868,14.5716658 15.6006272,14.8129466 15.5045653,15.0402621 C15.41171,15.2596275 15.2791049,15.4564947 15.1100626,15.625431 C14.9411262,15.7943673 14.7441531,15.9271844 14.5247876,16.0199338 C14.2973662,16.1161016 14.0561914,16.1648612 13.8077556,16.1648612" id="Fill-4" fill="#666666" mask="url(#mask-2)"></path>
                                    </g>
                                    <path d="M12.4276982,5.57166581 L3.22168863,5.57166581 L3.22168863,2.57946559 C3.22168863,1.9447155 3.73811704,1.42815458 4.37289363,1.42815458 L5.56154288,1.42815458 C5.98667943,0.58182996 6.85857637,0.0330982702 7.82468016,0.0330982702 C8.79078395,0.0330982702 9.6627074,0.58182996 10.0877379,1.42815458 L11.2763872,1.42815458 C11.9112433,1.42815458 12.4276982,1.9447155 12.4276982,2.57946559 L12.4276982,5.57166581 M4.14348473,4.64986971 L11.5059816,4.64986971 L11.5059816,2.57946559 C11.5059816,2.45295547 11.4031093,2.35005668 11.2764932,2.35005668 L9.45441884,2.35005668 L9.34720059,2.03953184 C9.12327714,1.39078984 8.51150239,0.954894369 7.82468016,0.954894369 C7.13785793,0.954894369 6.52600368,1.39078984 6.30218623,2.03953184 L6.19494148,2.35005668 L4.37289363,2.35005668 C4.24638351,2.35005668 4.14348473,2.45295547 4.14348473,2.57946559 L4.14348473,4.64986971" id="Fill-6" fill="#666666"></path>
                                </g>
                            </g>
                        </g>
                    </g>
                </g>
            </g>
        </g>
    </g>
</svg>