<?xml version="1.0" encoding="UTF-8"?>
<svg width="20px" height="20px" viewBox="0 0 20 20" version="1.1" xmlns="http://www.w3.org/2000/svg" xmlns:xlink="http://www.w3.org/1999/xlink">
    <!-- Generator: Sketch 49.1 (51147) - http://www.bohemiancoding.com/sketch -->
    <title>Slice 20</title>
    <desc>Created with Sketch.</desc>
    <defs></defs>
    <g id="Page-1" stroke="none" stroke-width="1" fill="none" fill-rule="evenodd">
        <g id="2.1-I--我的文档-1-" transform="translate(-417.000000, -367.000000)" fill="#666666">
            <g id="Group-3" transform="translate(390.000000, 118.000000)">
                <g id="图标">
                    <g id="Group-3">
                        <g id="图标" transform="translate(27.000000, 49.000000)">
                            <g id="项目-copy-2" transform="translate(0.000000, 200.000000)">
                                <path d="M5.90853108,2.03620426 L3.00977442,2.03620426 C2.46873357,2.03620426 1.96625222,2.22939432 1.57972114,2.6159254 C1.19319005,3.00245648 1,3.50493783 1,4.04597869 L1,6.94473535 C1,7.48586679 1.23190053,7.98834813 1.57972114,8.37487922 C1.96625222,8.76128952 2.46873357,8.95460036 3.00977442,8.95460036 L5.90853108,8.95460036 C6.44966252,8.95460036 6.95214387,8.72269982 7.33867496,8.37487922 C7.72508526,7.98834813 7.91839609,7.48586679 7.91839609,6.94473535 L7.91839609,4.04597869 C7.91839609,3.50493783 7.72508526,3.00245648 7.33867496,2.6159254 C6.95214387,2.22939432 6.44966252,2.03620426 5.90853108,2.03620426 Z M6.75883304,4.47119005 L6.75883304,6.51961456 C6.75883304,6.86746536 6.64288277,7.17660568 6.37242274,7.408627 C6.14040142,7.64052753 5.79258082,7.7950373 5.4834103,7.7950373 L3.43498579,7.7950373 C3.08713499,7.7950373 2.77787389,7.67908703 2.54597336,7.408627 C2.31410302,7.17660568 2.15944227,6.82878508 2.15944227,6.51961456 L2.15944227,4.47119005 C2.15944227,3.77551865 2.73931439,3.19564654 3.43498579,3.19564654 L5.4834103,3.19564654 C6.1791119,3.19564654 6.75883304,3.77551865 6.75883304,4.47119005 Z M5.90853108,10.9643748 L3.00977442,10.9643748 C2.46873357,10.9643748 1.96625222,11.1575648 1.57972114,11.5440959 C1.19319005,11.930627 1,12.4330782 1,12.974119 L1,15.8728757 C1,16.4140373 1.23190053,16.9165187 1.57972114,17.3030497 C1.96625222,17.6894298 2.46873357,17.8827709 3.00977442,17.8827709 L5.90853108,17.8827709 C6.44966252,17.8827709 6.95214387,17.6508703 7.33867496,17.3030497 C7.72508526,16.9165187 7.91839609,16.4140373 7.91839609,15.8728757 L7.91839609,12.974119 C7.91839609,12.4330782 7.72508526,11.930627 7.33867496,11.5440959 C6.95214387,11.1575648 6.44966252,10.9643748 5.90853108,10.9643748 Z M6.75883304,13.3993304 L6.75883304,15.4477851 C6.75883304,15.7956359 6.64288277,16.104897 6.37242274,16.3367975 C6.14040142,16.5686679 5.79258082,16.7231776 5.4834103,16.7231776 L3.43498579,16.7231776 C3.08713499,16.7231776 2.77787389,16.5686679 2.54597336,16.3367975 C2.31410302,16.104897 2.15944227,15.7569254 2.15944227,15.4477851 L2.15944227,13.3993304 C2.15944227,12.703659 2.73931439,12.1238171 3.43498579,12.1238171 L5.4834103,12.1238171 C6.1791119,12.1238171 6.75883304,12.703659 6.75883304,13.3993304 Z M10.8171528,3.93002842 L17.3103375,3.93002842 C17.6581883,3.93002842 17.9287691,3.65956838 17.9287691,3.3115968 C17.9287691,2.9637762 17.6581883,2.69331616 17.3103375,2.69331616 L10.8171528,2.69331616 C10.4693321,2.69331616 10.1987513,2.9637762 10.1987513,3.3115968 C10.1987513,3.65956838 10.5078917,3.93002842 10.8171528,3.93002842 Z M10.8171528,8.29748845 L17.3490178,8.29748845 C17.5809183,8.29748845 17.7741385,8.18156838 17.8900586,7.98834813 C18.0060089,7.7950373 18.0060089,7.56313677 17.8900586,7.36994671 C17.7741385,7.17660568 17.5809183,7.06065542 17.3490178,7.06065542 L10.8171528,7.06065542 C10.4693321,7.06065542 10.1987513,7.33123623 10.1987513,7.67908703 C10.1987513,8.02690764 10.5078917,8.29748845 10.8171528,8.29748845 Z M10.8171528,12.8196092 L17.3490178,12.8196092 C17.6968686,12.8196092 17.9674494,12.5490284 17.9674494,12.2012078 C17.9674494,11.853357 17.6968686,11.5827762 17.3490178,11.5827762 L10.8171528,11.5827762 C10.5852522,11.5827762 10.3919414,11.6987265 10.2759911,11.8919165 C10.1600409,12.0852575 10.1600409,12.3171279 10.2759911,12.5103481 C10.3919414,12.6649787 10.6238419,12.8196092 10.8171528,12.8196092 Z M17.3876075,15.9115861 L10.8171528,15.9115861 C10.5852522,15.9115861 10.3919414,16.0275062 10.2759911,16.2208472 C10.1600409,16.4140373 10.1600409,16.6459378 10.2759911,16.8391279 C10.3919414,17.0324689 10.5852522,17.148389 10.8171528,17.148389 L17.3490178,17.148389 C17.5809183,17.148389 17.7741385,17.0324689 17.8900586,16.8391279 C18.0060089,16.6459378 18.0060089,16.4140373 17.8900586,16.2208472 C17.8128188,16.0275062 17.5809183,15.9115861 17.3876075,15.9115861 Z" id="xiangmu-(1)"></path>
                            </g>
                        </g>
                    </g>
                </g>
            </g>
        </g>
    </g>
</svg>