<?xml version="1.0" encoding="UTF-8"?>
<svg width="20px" height="20px" viewBox="0 0 20 20" version="1.1" xmlns="http://www.w3.org/2000/svg" xmlns:xlink="http://www.w3.org/1999/xlink">
    <!-- Generator: Sketch 49.1 (51147) - http://www.bohemiancoding.com/sketch -->
    <title>Slice 20</title>
    <desc>Created with Sketch.</desc>
    <defs>
        <polygon id="path-1" points="0.00142458101 0.0417877095 16.9924022 0.0417877095 16.9924022 16.6200642 0.00142458101 16.6200642"></polygon>
    </defs>
    <g id="Page-1" stroke="none" stroke-width="1" fill="none" fill-rule="evenodd">
        <g id="2.1-I--我的文档-1-" transform="translate(-417.000000, -327.000000)">
            <g id="Group-3" transform="translate(390.000000, 118.000000)">
                <g id="图标">
                    <g id="pinglun-copy-2" transform="translate(27.000000, 209.000000)">
                        <g id="pinglun" transform="translate(1.000000, 2.000000)">
                            <mask id="mask-2" fill="white">
                                <use xlink:href="#path-1"></use>
                            </mask>
                            <g id="Clip-2"></g>
                            <path d="M4.42185196,7.02223464 C4.42185196,7.34860615 4.59603073,7.65021369 4.87871508,7.81344693 C5.16142318,7.97668017 5.50968575,7.97668017 5.79237011,7.81344693 C6.07505447,7.65021369 6.24913827,7.34860615 6.24913827,7.02223464 C6.24913827,6.69586313 6.07505447,6.39425559 5.79237011,6.23102235 C5.50968575,6.06778911 5.16142318,6.06778911 4.87871508,6.23102235 C4.59603073,6.39425559 4.42185196,6.69586313 4.42185196,7.02223464 Z M7.90929749,7.02223464 C7.90929749,7.52677374 8.31831844,7.93586592 8.82295251,7.93586592 C9.32749162,7.93586592 9.73648883,7.52677374 9.73648883,7.02223464 C9.73648883,6.69586313 9.56240503,6.39425559 9.27972067,6.23102235 C8.99703631,6.06778911 8.64877374,6.06778911 8.36606564,6.23102235 C8.08338128,6.39425559 7.90929749,6.69586313 7.90929749,7.02223464 Z M11.396648,7.02223464 C11.396648,7.52677374 11.805669,7.93586592 12.3102793,7.93586592 C12.8148184,7.93586592 13.2239344,7.52677374 13.2239344,7.02223464 C13.2239344,6.51769553 12.8148184,6.10860335 12.3102793,6.10860335 C11.805669,6.10860335 11.396648,6.51769553 11.396648,7.02223464 Z" id="Fill-1" fill="#666666" mask="url(#mask-2)"></path>
                            <path d="M14.6523142,0.0417877095 L2.34008799,0.0417877095 C1.04654469,0.0417877095 0,1.09027933 0,2.3818757 L0,10.6653869 C0,11.9589302 1.04849162,13.0054749 2.34008799,13.0054749 L4.02686313,13.0054749 L4.07620112,16.1604232 C4.07814804,16.3427696 4.18822067,16.506169 4.35349581,16.5801997 C4.41434916,16.6068156 4.47890642,16.6200642 4.54343994,16.6200642 C4.65548324,16.6200642 4.76382263,16.5801997 4.85117318,16.5042221 L8.85521927,13.0036229 L13.4556187,13.0036229 C13.8032165,13.0036229 14.02925,12.6369832 13.8735196,12.327398 C13.7937668,12.1677975 13.6322905,12.0690265 13.4556187,12.0690265 L8.67854749,12.0690265 C8.56455726,12.0690265 8.45631285,12.110838 8.37081425,12.1849399 L4.99548324,15.1366955 L4.95561872,12.5306145 C4.95181983,12.2741662 4.74295251,12.0690265 4.48835615,12.0690265 L2.34008799,12.0690265 C1.56518715,12.0690265 0.936448324,11.4402877 0.936448324,10.6653869 L0.936448324,2.3818757 C0.936448324,1.60697486 1.56518715,0.978236034 2.34008799,0.978236034 L14.6523142,0.978236034 C15.4273101,0.978236034 16.0559302,1.60697486 16.0559302,2.3818757 L16.0559302,10.6653869 C16.0559302,11.0414763 15.9059693,11.3852989 15.6647402,11.6359777 C15.526081,11.7802877 15.4860978,11.9949958 15.5772709,12.1753953 C15.721676,12.4660573 16.109162,12.5230168 16.3351955,12.2893855 C16.7416997,11.867662 16.9924022,11.2959777 16.9924022,10.6653869 L16.9924022,2.3818757 C16.9924022,1.09027933 15.9439106,0.0417877095 14.6523142,0.0417877095 Z" id="Fill-3" fill="#666666" mask="url(#mask-2)"></path>
                        </g>
                    </g>
                </g>
            </g>
        </g>
    </g>
</svg>