<?xml version="1.0" encoding="UTF-8"?>
<svg width="20px" height="20px" viewBox="0 0 20 20" version="1.1" xmlns="http://www.w3.org/2000/svg" xmlns:xlink="http://www.w3.org/1999/xlink">
    <!-- Generator: Sketch 49.1 (51147) - http://www.bohemiancoding.com/sketch -->
    <title>Slice 2 Copy</title>
    <desc>Created with Sketch.</desc>
    <defs>
        <polygon id="path-1" points="0 0 14 0 14 16.625 0 16.625"></polygon>
    </defs>
    <g id="Page-1" stroke="none" stroke-width="1" fill="none" fill-rule="evenodd">
        <g id="1.3-项目详情" transform="translate(-1425.000000, -477.000000)">
            <g id="Group-2" transform="translate(1358.000000, 452.000000)">
                <g id="QQ" transform="translate(67.000000, 25.000000)">
                    <g id="Page-1" transform="translate(3.000000, 2.000000)">
                        <mask id="mask-2" fill="white">
                            <use xlink:href="#path-1"></use>
                        </mask>
                        <g id="Clip-2"></g>
                        <path d="M7.55030245,14.7664043 L7.70976642,14.9823183 C8.07920779,15.4825547 8.72387306,15.8342795 9.52527855,15.9734855 C9.72015144,16.0068094 9.92047186,16.024163 10.1194304,16.024163 C11.1804601,16.024163 11.9786465,15.5503343 12.0313885,15.1252969 C12.0775687,14.7555898 11.5221686,14.3238875 10.616641,14.0256068 L10.165363,13.8768437 L10.4955574,13.530652 C11.0233484,12.9774745 11.4649695,12.0706861 11.5699582,11.3257388 L11.6775469,10.5606714 L12.2714511,11.4494775 C12.5552177,11.8883475 12.8001088,12.2672345 13.1071512,12.2672345 L13.1075227,12.2672345 C13.1357508,12.2672345 13.1649693,12.2643422 13.1953021,12.2588092 C13.4021844,12.1052675 13.6169902,10.393926 12.9985721,9.39357896 L12.9471921,9.31058348 C12.666273,8.85586887 12.3479641,8.34066816 12.0888352,7.99183566 L11.8948289,7.73077716 L12.1674529,7.55636091 C12.2480515,7.50480311 12.2603084,7.24776863 12.2603084,7.09900553 C12.2603084,6.59285887 12.1357582,6.52067796 11.9474471,6.41190358 L11.7728786,6.3110515 L11.8009829,6.10871859 C11.8241349,5.94159588 11.8222778,5.72040036 11.8205445,5.52548674 L11.8196778,5.37357987 C11.8196778,2.741743 9.66270479,0.600836951 7.01124491,0.600836951 C4.3342807,0.600836951 2.23723048,2.69710149 2.23723048,5.37357987 C2.23723048,5.60269768 2.25803013,5.8496721 2.30136273,6.12846145 L2.33095271,6.32098581 L2.17025067,6.42686792 C1.8957696,6.60845196 1.762429,6.82813847 1.762429,7.09900553 C1.762429,7.2424871 1.84290383,7.47248517 2.00187256,7.78296371 L2.09769951,7.97008078 L1.95643524,8.12525717 C1.65830695,8.45271206 1.28775132,8.86027015 1.03778412,9.36805156 C0.544782942,10.3710393 0.492536208,11.5662999 0.726779862,12.098477 C0.78125513,12.2228445 0.831520946,12.2590607 0.842292192,12.2619529 L0.844396918,12.2619529 C1.06217418,12.2619529 1.42034907,11.8146576 1.76676226,11.3820751 L2.37614242,10.626439 L2.45364587,11.3350444 C2.53560639,12.0894229 2.94664705,12.9299408 3.5258182,13.5293945 L3.87012665,13.8856463 L3.3991632,14.0278703 C2.47692167,14.3060309 1.82396129,14.801866 1.87967463,15.1818847 C1.95878758,15.7307866 3.0858066,16.1118113 4.36065168,15.970719 C5.24191296,15.8733879 5.96829114,15.5092138 6.30306642,14.9966539 L6.39666484,14.8534238 L6.62533716,14.8661246 L6.70308822,14.9035984 C6.78257259,14.9427068 7.09011024,15.0454452 7.32175394,14.9046044 L7.55030245,14.7664043 Z M10.1194304,16.625 C9.88716766,16.625 9.65379066,16.6051314 9.42586118,16.5655199 C8.57319942,16.4178886 7.86031625,16.0537145 7.38972422,15.5307172 C7.1344333,15.6169822 6.83457171,15.5884368 6.64737488,15.5278249 C6.17913519,16.0808766 5.36918699,16.4636618 4.42478393,16.5681607 C2.752517,16.752134 1.42666325,16.1817287 1.29443692,15.2699102 C1.18486735,14.5252144 1.96485414,13.9404736 2.80117332,13.6027071 C2.43433191,13.1354175 2.15465093,12.5940606 1.99543458,12.0466677 C1.54019466,12.6017314 1.14883938,12.9553424 0.704865947,12.8463165 C0.55691607,12.8106033 0.348919591,12.6979307 0.196141225,12.3645655 C-0.106567937,11.7056317 -0.0998823358,10.3372124 0.508754981,9.09969952 C0.75476034,8.59921165 1.09795453,8.18901279 1.38394969,7.86998321 C1.27561819,7.63533236 1.1707533,7.35100998 1.1707533,7.09900553 C1.1707533,6.68239339 1.34990265,6.3192253 1.69099211,6.03867544 C1.66041168,5.80100657 1.64567859,5.58194881 1.64567859,5.37357987 C1.64567859,2.36046681 4.00247679,0 7.01124491,0 C9.98881356,0 12.4112297,2.41064135 12.4112297,5.37357987 L12.4122202,5.52033096 C12.4132106,5.67236358 12.4146963,5.83835454 12.4052869,5.99730345 C12.6848441,6.20504364 12.8517365,6.49728832 12.8517365,7.09900553 C12.8517365,7.35163873 12.8303178,7.62162553 12.7058914,7.83238374 C12.945954,8.17819823 13.2102828,8.60600219 13.4482407,8.99117665 L13.4993732,9.07392062 C14.0707445,9.99781118 14.1285625,11.6065402 13.7968824,12.3741226 C13.6480659,12.7181766 13.4462598,12.8226754 13.3026432,12.8497118 C13.2351681,12.8621611 13.1701692,12.8680714 13.1073989,12.8680714 L13.1071512,12.8680714 C12.6073407,12.8680714 12.2783843,12.5154664 11.9900368,12.1012435 C11.8158398,12.6302768 11.5369016,13.1701247 11.209431,13.6059767 C12.1867668,14.0126545 12.6954916,14.5818023 12.6184833,15.2006216 C12.5175803,16.0124682 11.4433032,16.625 10.1194304,16.625 Z" id="Fill-1" fill="#3B99FC" mask="url(#mask-2)"></path>
                    </g>
                </g>
            </g>
        </g>
    </g>
</svg>