<?xml version="1.0" encoding="UTF-8"?>
<svg width="20px" height="20px" viewBox="0 0 20 20" version="1.1" xmlns="http://www.w3.org/2000/svg" xmlns:xlink="http://www.w3.org/1999/xlink">
    <!-- Generator: Sketch 49.1 (51147) - http://www.bohemiancoding.com/sketch -->
    <title>Slice 20</title>
    <desc>Created with Sketch.</desc>
    <defs></defs>
    <g id="Page-1" stroke="none" stroke-width="1" fill="none" fill-rule="evenodd">
        <g id="2.1-I--我的文档-3" transform="translate(-1123.000000, -174.000000)" fill="#666666">
            <g id="wenjianjia-copy-2" transform="translate(1123.000000, 174.000000)">
                <path d="M16.6150914,17.9700003 C16.4546785,17.9700003 16.292461,17.9128977 16.1695,17.7988932 L8.18452496,10.3985117 C7.93849168,10.1703244 7.93849168,9.79957007 8.18452496,9.57147185 L16.1695,2.17109038 C16.4154442,1.94296987 16.8147386,1.94296987 17.0606828,2.17109038 C17.3066269,2.39927772 17.3066269,2.7699429 17.0606828,2.99813024 L9.52129907,9.98493608 L17.0606828,16.9718533 C17.3066269,17.1999515 17.3066269,17.5707058 17.0606828,17.7988932 C16.9376995,17.9128977 16.775482,17.9700003 16.6150914,17.9700003 Z" id="Fill-1"></path>
                <path d="M11.6150914,17.9700003 C11.4546785,17.9700003 11.292461,17.9128977 11.1695,17.7988932 L3.18452496,10.3985117 C2.93849168,10.1703244 2.93849168,9.79957007 3.18452496,9.57147185 L11.1695,2.17109038 C11.4154442,1.94296987 11.8147386,1.94296987 12.0606828,2.17109038 C12.3066269,2.39927772 12.3066269,2.7699429 12.0606828,2.99813024 L4.52129907,9.98493608 L12.0606828,16.9718533 C12.3066269,17.1999515 12.3066269,17.5707058 12.0606828,17.7988932 C11.9376995,17.9128977 11.775482,17.9700003 11.6150914,17.9700003 Z" id="Fill-1"></path>
            </g>
        </g>
    </g>
</svg>