<?xml version="1.0" encoding="UTF-8"?>
<svg width="22px" height="22px" viewBox="0 0 22 22" version="1.1" xmlns="http://www.w3.org/2000/svg" xmlns:xlink="http://www.w3.org/1999/xlink">
    <!-- Generator: Sketch 49.1 (51147) - http://www.bohemiancoding.com/sketch -->
    <title>1.2 项目列表页</title>
    <desc>Created with Sketch.</desc>
    <defs>
        <polygon id="path-1" points="0.00156069364 -4.01541343e-06 17.997686 -4.01541343e-06 17.997686 18 0.00156069364 18"></polygon>
    </defs>
    <g id="Page-1" stroke="none" stroke-width="1" fill="none" fill-rule="evenodd">
        <g id="2.1-I--我的文档-1-" transform="translate(-1337.000000, -20.000000)">
            <g id="Group-11">
                <g id="搜索-copy" transform="translate(1132.000000, 11.000000)">
                    <g id="Group-4" transform="translate(205.000000, 9.000000)">
                        <g id="Group-3" transform="translate(2.000000, 2.000000)">
                            <mask id="mask-2" fill="white">
                                <use xlink:href="#path-1"></use>
                            </mask>
                            <g id="Clip-2"></g>
                            <path d="M17.8507457,17.1435282 L13.7409191,13.0297858 C13.5452081,12.8338958 13.2290116,12.8338958 13.0333266,13.0297858 C13.0125954,13.0506512 13.0042457,13.0756845 12.9875983,13.0965239 C10.6173988,15.4096151 6.89459827,15.7327033 4.12283237,13.8571606 C0.895369942,11.6710593 0.0275462428,7.28439942 2.19178613,4.07719537 C2.97213295,2.91649493 4.0832948,2.02032417 5.37971098,1.50147612 C7.56052023,0.632500724 10.0284711,0.903360347 11.97,2.22038205 C13.9156647,3.531178 15.0872254,5.72350507 15.0976821,8.0721013 C15.1018439,8.99114327 14.9249393,9.90388133 14.573289,10.7541534 C14.4712717,11.0125876 14.5981821,11.3022026 14.8562688,11.4043676 C15.1080347,11.5022344 15.3910145,11.3856382 15.4992225,11.1375456 C15.9008931,10.1643734 16.1048237,9.12240521 16.1006358,8.07006946 C16.0881503,5.3901534 14.7522225,2.88942981 12.5339046,1.39311143 C10.3135838,-0.111516643 7.49814451,-0.417803184 5.00935838,0.574098408 C3.52558092,1.16385239 2.25213295,2.19128509 1.36144509,3.51877858 C-1.11066763,7.18226049 -0.122228324,12.1941795 3.5651185,14.6865673 C4.90317919,15.5930796 6.48257514,16.0765268 8.09945376,16.0744949 C10.0431156,16.0765268 11.9221387,15.3700463 13.3850809,14.0863936 L17.1452861,17.8520405 C17.3388382,18.0479305 17.6550347,18.0500666 17.8507457,17.8540724 L17.8527746,17.8520405 C18.0463266,17.6561766 18.0463266,17.3393922 17.8507457,17.1435282" id="Fill-1" fill="#666666" mask="url(#mask-2)"></path>
                            <path d="M8.44767373,13.9090909 C5.1441292,13.9090909 2.45454545,11.2225564 2.45454545,7.91801284 C2.45454545,7.6121939 2.70321019,7.36363636 3.00910182,7.36363636 C3.31501999,7.36363636 3.56355195,7.6121939 3.56355195,7.91801284 C3.56355195,10.6087683 5.75384112,12.7983735 8.44549618,12.7983735 C8.7513878,12.7983735 8.99994632,13.0468248 8.99994632,13.3526438 C9.00419519,13.660613 8.75566322,13.9090909 8.44767373,13.9090909 Z" id="Fill-4" fill="#666666" mask="url(#mask-2)"></path>
                        </g>
                    </g>
                </g>
            </g>
        </g>
    </g>
</svg>