<?xml version="1.0" encoding="UTF-8"?>
<svg width="20px" height="20px" viewBox="0 0 20 20" version="1.1" xmlns="http://www.w3.org/2000/svg" xmlns:xlink="http://www.w3.org/1999/xlink">
    <!-- Generator: Sketch 49.1 (51147) - http://www.bohemiancoding.com/sketch -->
    <title>Slice 20</title>
    <desc>Created with Sketch.</desc>
    <defs>
        <polygon id="path-1" points="0.00131707317 0.0175609756 17.9824171 0.0175609756 17.9824171 17.999978 0.00131707317 17.999978"></polygon>
    </defs>
    <g id="Page-1" stroke="none" stroke-width="1" fill="none" fill-rule="evenodd">
        <g id="2.1-I--我的文档-3-复制" transform="translate(-1421.000000, -352.000000)">
            <g id="shezhi" transform="translate(1421.000000, 352.000000)">
                <g id="Group-3" transform="translate(1.000000, 1.000000)">
                    <mask id="mask-2" fill="white">
                        <use xlink:href="#path-1"></use>
                    </mask>
                    <g id="Clip-2"></g>
                    <path d="M16.4062976,9.00882439 C16.4062976,8.23194878 16.8783366,7.54862927 17.6083902,7.26807073 L17.9824171,7.12418049 L17.8835488,6.73669756 C17.6681634,5.89019268 17.3323756,5.07902927 16.8864146,4.32796829 L16.6823341,3.98361951 L16.3163634,4.14636585 C16.0754049,4.25423415 15.8146463,4.30996829 15.5502878,4.3091122 C15.0569122,4.31073659 14.5834024,4.11447073 14.2358049,3.76419512 C13.6868488,3.21824634 13.5351659,2.3885561 13.8555,1.68361463 L14.0181585,1.3167878 L13.6729537,1.11272927 C12.9213,0.667602439 12.1098732,0.332078049 11.2632805,0.116429268 L10.8766537,0.0175609756 L10.7328512,0.390731707 C10.4596683,1.11547317 9.76572439,1.5948 8.99126341,1.59376829 C8.2169561,1.59556829 7.5230122,1.11632927 7.25050976,0.391587805 L7.10661951,0.0175609756 L6.71913659,0.116429268 C5.87307073,0.332253659 5.06206098,0.667602439 4.31126341,1.11358537 L3.96691463,1.31766585 L4.12880488,1.68361463 C4.44854634,2.3885561 4.29695122,3.21798293 3.74843415,3.76419512 C3.19974146,4.30843171 2.3732122,4.46020244 1.66699756,4.14636585 L1.30284878,3.98447561 L1.09782439,4.32796829 C0.650897561,5.0786122 0.314780488,5.88995122 0.0998121951,6.73669756 L0.000856097561,7.12332439 L0.373170732,7.26721463 C1.0979122,7.54030976 1.57723902,8.23425366 1.57620732,9.00882439 C1.57620732,9.78559024 1.10416829,10.4689098 0.374026829,10.7494683 L0,10.8933585 L0.0988682927,11.2808415 C0.314692683,12.1278512 0.650041463,12.938861 1.09516829,13.6895707 L1.30010488,14.0340073 L1.66605366,13.871261 C1.9070122,13.7633049 2.16777073,13.7075707 2.43212927,13.7085146 C2.92526341,13.7070659 3.3984,13.9033317 3.74577805,14.2533659 C4.29600732,14.802739 4.44529756,15.6199829 4.12700488,16.3339244 L3.96331463,16.6998951 L4.30860732,16.9048976 C5.06026098,17.3499366 5.87212683,17.6852854 6.71828049,17.9011098 L7.10576341,17.999978 L7.24965366,17.6268951 C7.5230122,16.9023293 8.21678049,16.4230024 8.99126341,16.4238585 C9.76802927,16.4238585 10.4513488,16.8958976 10.7319073,17.6259512 L10.8757976,17.999978 L11.2632805,17.9011098 C12.1102902,17.6852854 12.9213,17.3499366 13.6720098,16.9048976 L14.0164463,16.6998951 L13.8537,16.3339244 C13.5338707,15.6289829 13.6854659,14.7995561 14.2340049,14.2533659 C14.7832024,13.7100732 15.6091171,13.5584561 16.3155073,13.871261 L16.6805341,14.0330634 L16.8846146,13.6895707 C17.3315195,12.938861 17.6686683,12.1278512 17.8826049,11.2808415 L17.981561,10.8933585 L17.6083902,10.7494683 C16.8836707,10.4769659 16.4044098,9.78302195 16.4062976,9.00882439 Z M16.2920854,12.9091829 C16.0505341,12.8422976 15.8010146,12.808339 15.5502878,12.8084268 C14.8175122,12.806122 14.1141951,13.097239 13.5974195,13.6167805 C12.8892293,14.3195488 12.6182634,15.3513439 12.889822,16.3114463 C12.413678,16.5656854 11.913761,16.7725976 11.3972268,16.9291756 C10.9106122,16.0579098 9.98916585,15.5197537 8.99126341,15.5237927 C7.97882927,15.5237927 7.07334146,16.0633098 6.58604634,16.9291756 C6.06830488,16.772422 5.56720244,16.5652683 5.08993902,16.3105024 C5.35276098,15.350839 5.08333171,14.3238293 4.38321951,13.6167805 C3.67768537,12.9133976 2.64880976,12.6428488 1.68853171,12.908239 C1.43411707,12.4319195 1.22720488,11.9316732 1.07089024,11.4147878 C1.9422439,10.928261 2.48075122,10.0068146 2.47706341,9.00882439 C2.47706341,7.99639024 1.93669024,7.09090244 1.07089024,6.60360732 C1.2276439,6.08586585 1.4355,5.58502683 1.69127561,5.1083561 C1.9322122,5.17583415 2.18122683,5.2091122 2.43212927,5.2091122 C3.16492683,5.21141707 3.86822195,4.92032195 4.38501951,4.40078049 C5.09336341,3.69807805 5.36441707,2.66619512 5.09259512,1.70609268 C5.56867317,1.45176585 6.06856829,1.24485366 6.58519024,1.08845122 C7.07162927,1.95998049 7.99307561,2.49855366 8.99126341,2.49462439 C10.0036756,2.49462439 10.9090756,1.95425122 11.3963707,1.08845122 C11.9141122,1.24520488 12.4152146,1.45235854 12.892478,1.70703659 C12.6295024,2.66654634 12.8985805,3.69353415 13.5983415,4.40078049 C14.3037878,5.10431707 15.3326634,5.37486585 16.2929415,5.1093 C16.5483,5.58579512 16.7551244,6.08569024 16.9116146,6.60275122 C16.040261,7.08927805 15.5020171,8.0108122 15.5062317,9.00882439 C15.5062317,10.0230366 16.0457488,10.9284366 16.9116146,11.4147878 C16.7547073,11.932178 16.5468512,12.4327756 16.2911415,12.9091829 L16.2920854,12.9091829 Z" id="Fill-1" fill="#666666" mask="url(#mask-2)"></path>
                </g>
                <path d="M9.6640542,7 C8.19526135,7 7,8.19526135 7,9.6640542 C7,11.1327603 8.19526135,12.328 9.6640542,12.328 C11.1327603,12.328 12.328,11.1327603 12.328,9.6640542 C12.328,8.19526135 11.1327603,7 9.6640542,7 Z M9.6640542,11.4621818 C8.67151878,11.460751 7.86727069,10.6564812 7.86581816,9.6640542 C7.86581816,8.67212581 8.67212581,7.86581816 9.6640542,7.86581816 C10.6558959,7.86581816 11.4621818,8.67212581 11.4621818,9.6640542 C11.460751,10.6564812 10.6564812,11.460751 9.6640542,11.4621818 Z" id="Fill-4" fill="#666666"></path>
            </g>
        </g>
    </g>
</svg>