<?xml version="1.0" encoding="UTF-8"?>
<svg width="20px" height="20px" viewBox="0 0 20 20" version="1.1" xmlns="http://www.w3.org/2000/svg" xmlns:xlink="http://www.w3.org/1999/xlink">
    <!-- Generator: Sketch 49.1 (51147) - http://www.bohemiancoding.com/sketch -->
    <title>Slice 20</title>
    <desc>Created with Sketch.</desc>
    <defs></defs>
    <g id="Page-1" stroke="none" stroke-width="1" fill="none" fill-rule="evenodd">
        <g id="2.1-I--我的文档-1-" transform="translate(-417.000000, -207.000000)" fill="#666666">
            <g id="Group-3" transform="translate(390.000000, 118.000000)">
                <g id="图标">
                    <g id="Group-3">
                        <g id="图标" transform="translate(27.000000, 49.000000)">
                            <g id="分享-copy" transform="translate(0.000000, 40.000000)">
                                <g id="fenxiang-copy" transform="translate(0.000000, 1.000000)">
                                    <path d="M13.3743288,11.3182409 C12.6266184,11.3182409 12.0158931,11.7184493 11.7314844,12.3397158 L8.11937618,10.8022327 C8.32997023,10.4758133 8.4458728,10.0756049 8.4458728,9.6438498 C8.4458728,9.46477673 8.42479026,9.2858065 8.3827023,9.11730041 L10.6889012,7.32700677 C10.9943153,7.55868336 11.3839824,7.69559134 11.8157375,7.69559134 C12.8583207,7.69559134 13.6376806,6.91633424 13.6376806,5.88429229 C13.6376806,4.85227605 12.8583207,4.0729161 11.8157375,4.0729161 C10.77318,4.0729161 10.0044641,4.85227605 10.0044641,5.88429229 C10.0044641,6.14754127 10.0570934,6.38978484 10.1413464,6.60037889 L8.01411773,8.232682 C7.59280108,7.60077131 6.89782273,7.15847497 6.10792152,7.15847497 C4.812682,7.15847497 3.77009878,8.20105819 3.77009878,9.49642625 C3.77009878,10.7916915 4.812682,11.834249 6.10792152,11.834249 C6.59240866,11.834249 7.04524628,11.707908 7.41383085,11.4762314 L11.5630555,13.2454168 C11.6156847,14.2248295 12.3739364,14.9514317 13.3743288,14.9514317 C14.416912,14.9514317 15.1857307,14.1722003 15.1857307,13.1401583 C15.1857307,12.1081421 14.4063708,11.3182409 13.3743288,11.3182409 Z M11.8157375,4.83116779 C12.3317713,4.83116779 12.8583207,5.22086062 12.8583207,5.87375101 C12.8583207,6.52666712 12.4686536,6.91633424 11.8157375,6.91633424 C11.1628471,6.91633424 10.77318,6.40032612 10.77318,5.87375101 C10.77318,5.34720162 11.2997294,4.83116779 11.8157375,4.83116779 Z M6.10792152,11.0550176 C5.32869012,11.0550176 4.67577402,10.4021015 4.67577402,9.62276725 C4.67577402,8.84351015 5.32869012,8.19051691 6.10792152,8.19051691 C6.88728146,8.19051691 7.54017185,8.84351015 7.54017185,9.62276725 C7.52963058,10.4021015 6.88728146,11.0550176 6.10792152,11.0550176 Z M13.3743288,14.1722003 C12.7214384,14.1722003 12.3317713,13.7825332 12.3317713,13.1296171 C12.3317713,12.4767267 12.8477794,12.0870338 13.3743288,12.0870338 C13.9009039,12.0870338 14.416912,12.4767267 14.416912,13.1296171 C14.4063708,13.7825332 14.0167037,14.1722003 13.3743288,14.1722003 Z" id="Fill-1"></path>
                                    <path d="M9.47791475,18.9743153 C8.20362923,18.9743153 6.96099323,18.7215304 5.79206901,18.2266049 C4.66523275,17.7526847 3.65429905,17.0681448 2.78014479,16.1940934 C1.90609337,15.3200162 1.22155345,14.3090825 0.747710419,13.1822463 C0.252784844,12.0133221 0,10.7706861 0,9.49642625 C0,8.22214073 0.252784844,6.97950474 0.747710419,5.81058051 C1.22155345,4.68374425 1.90609337,3.67281055 2.78014479,2.79865629 C3.65429905,1.92460487 4.66523275,1.24006495 5.79206901,0.766221922 C6.96099323,0.271296346 8.20362923,0.018511502 9.47791475,0.018511502 C10.7521746,0.018511502 11.9948106,0.271296346 13.1637348,0.766221922 C14.290571,1.24006495 15.3015047,1.92460487 16.1755819,2.79865629 C17.0496333,3.67281055 17.7341732,4.68374425 18.2080934,5.81058051 C18.7030189,6.97950474 18.9558038,8.22214073 18.9558038,9.49642625 C18.9558038,10.7706861 18.7030189,12.0133221 18.2080934,13.1822463 C17.7341732,14.3090825 17.0496333,15.3200162 16.1755819,16.1940934 C15.3015047,17.0681448 14.290571,17.7526847 13.1637348,18.2266049 C11.9948106,18.7215304 10.7521746,18.9743153 9.47791475,18.9743153 Z M9.47791475,0.966274696 C4.7704912,0.966274696 0.947763194,4.78900271 0.947763194,9.49642625 C0.947763194,14.2037212 4.7704912,18.0264493 9.47791475,18.0264493 C14.1852097,18.0264493 18.0079378,14.2037212 18.0079378,9.49642625 C18.0079378,4.78900271 14.1852097,0.966274696 9.47791475,0.966274696 Z" id="Fill-2"></path>
                                </g>
                            </g>
                        </g>
                    </g>
                </g>
            </g>
        </g>
    </g>
</svg>