<?xml version="1.0" encoding="UTF-8"?>
<svg width="20px" height="20px" viewBox="0 0 20 20" version="1.1" xmlns="http://www.w3.org/2000/svg" xmlns:xlink="http://www.w3.org/1999/xlink">
    <!-- Generator: Sketch 49.1 (51147) - http://www.bohemiancoding.com/sketch -->
    <title>Slice 20</title>
    <desc>Created with Sketch.</desc>
    <defs>
        <polygon id="path-1" points="0 0.0353921569 18.9962292 0.0353921569 18.9962292 18.3946078 0 18.3946078"></polygon>
    </defs>
    <g id="Page-1" stroke="none" stroke-width="1" fill="none" fill-rule="evenodd">
        <g id="2.1-I--我的文档-1-" transform="translate(-417.000000, -287.000000)">
            <g id="Group-3" transform="translate(390.000000, 118.000000)">
                <g id="图标">
                    <g id="收藏-copy-2" transform="translate(27.000000, 169.000000)">
                        <g id="shoucang" transform="translate(0.000000, 1.000000)">
                            <mask id="mask-2" fill="white">
                                <use xlink:href="#path-1"></use>
                            </mask>
                            <g id="Clip-2"></g>
                            <path d="M14.3028554,18.3946078 C14.024701,18.3946078 13.7465699,18.3151152 13.4683456,18.1958762 L9.49455147,16.2089792 L5.48091789,18.1958762 C5.2425098,18.3151152 4.92453922,18.3946078 4.64640809,18.3946078 C4.24901471,18.3946078 3.89139093,18.2753689 3.57351348,18.0369841 C3.0171348,17.5998676 2.73900368,16.8845037 2.85814951,16.2089792 L3.69265931,11.9569608 L0.553375,9.01631495 C0.0764889706,8.53945221 -0.122242647,7.82418137 0.0764889706,7.14856373 L0.0764889706,7.1088174 C0.314873775,6.43329289 0.871252451,5.95643015 1.54677696,5.83719118 L5.91803431,5.0424277 L7.86527819,1.06863358 C8.18315564,0.432762255 8.81893382,0.0353921569 9.49455147,0.0353921569 C10.209799,0.0353921569 10.8456703,0.472508578 11.1238015,1.06863358 L13.0709522,5.0424277 L17.4422328,5.79744485 C18.1178272,5.91668382 18.7138591,6.39354657 18.9125907,7.06907108 C19.1112292,7.74468873 18.952337,8.45995956 18.4754743,8.9368223 L15.3360968,11.8774681 L16.130837,16.1294865 C16.250076,16.8051042 15.9719449,17.520375 15.4155895,17.9177451 C15.0579424,18.2753689 14.6605723,18.3946078 14.3028554,18.3946078 Z M9.45480515,15.0168456 L13.905462,17.2422206 C14.024701,17.3216201 14.1836863,17.3613664 14.3028554,17.3613664 C14.4618407,17.3613664 14.620826,17.3216201 14.7002255,17.2024743 L14.740065,17.2024743 C14.9784498,17.0037426 15.0976887,16.7256115 15.0579424,16.4076409 L14.14394,11.599337 L17.6806176,8.26129779 C17.8793493,8.02281985 17.9588419,7.7049424 17.8793493,7.42678799 L17.8793493,7.38704167 C17.7998566,7.1088174 17.5614718,6.91017892 17.2832475,6.8704326 L17.2435711,6.8704326 L12.3557047,5.99617647 L10.1303064,1.50568015 C10.0111605,1.26727206 9.73293627,1.06863358 9.45480515,1.06863358 C9.1765576,1.06863358 8.89842647,1.26727206 8.73944118,1.54549632 L6.55390564,5.99617647 L1.62626961,6.91017892 C1.30836887,6.94992525 1.10963725,7.14856373 0.990491422,7.46646446 C0.910998775,7.74468873 0.990491422,8.1023125 1.22887623,8.30104412 L4.76564706,11.599337 L3.81189828,16.4076409 C3.77215196,16.6858652 3.89139093,17.0037426 4.12977574,17.2024743 C4.24901471,17.2819669 4.408,17.3613664 4.56691544,17.3613664 C4.68615441,17.3613664 4.80539338,17.3216201 4.92453922,17.2819669 C4.96428554,17.2422206 9.45480515,15.0168456 9.45480515,15.0168456 Z" id="Fill-1" fill="#666666" mask="url(#mask-2)"></path>
                        </g>
                    </g>
                </g>
            </g>
        </g>
    </g>
</svg>