<?xml version="1.0" encoding="UTF-8"?>
<svg width="20px" height="20px" viewBox="0 0 20 20" version="1.1" xmlns="http://www.w3.org/2000/svg" xmlns:xlink="http://www.w3.org/1999/xlink">
    <!-- Generator: Sketch 49.1 (51147) - http://www.bohemiancoding.com/sketch -->
    <title>Slice 20</title>
    <desc>Created with Sketch.</desc>
    <defs></defs>
    <g id="Page-1" stroke="none" stroke-width="1" fill="none" fill-rule="evenodd">
        <g id="2.1-I--我的文档-1-" transform="translate(-417.000000, -247.000000)" fill="#666666">
            <g id="Group-3" transform="translate(390.000000, 118.000000)">
                <g id="图标">
                    <g id="Group-3">
                        <g id="图标" transform="translate(27.000000, 49.000000)">
                            <g id="上传-copy-2" transform="translate(0.000000, 80.000000)">
                                <g id="tijiao" transform="translate(1.000000, 1.000000)">
                                    <path d="M13.5924159,9.23854969 C13.5924159,9.13001963 13.4847082,9.13001963 13.5924159,9.23854969 C13.3680138,9.01243436 13.1524887,8.90381595 13.0357943,8.90381595 C12.9191,8.90381595 12.5869024,9.01243436 12.5869024,9.13001963 C12.5583864,9.13001963 12.5309882,9.14141595 12.5107793,9.16177914 C12.4905704,9.18212025 12.4791947,9.20972761 12.4791947,9.23854969 L9.11246164,12.612854 C8.88805953,12.8389914 8.88805953,13.1737252 9.11246164,13.5084589 C9.36958815,13.7347509 9.75316277,13.7347509 10.0102674,13.5084589 L12.3714869,10.9212294 L12.3714869,17.0998454 C12.3714869,17.4146356 12.6246462,17.6697497 12.9370732,17.6697497 C13.2494125,17.6697497 13.5026814,17.4146356 13.5026814,17.0998454 L13.5026814,10.9212294 L15.9716087,13.3908736 C16.225557,13.6254479 16.6153784,13.6254479 16.8693267,13.3908736 C17.0938165,13.1646699 17.0938165,12.8300025 16.8693267,12.5043239 L13.5924159,9.23854969 Z" id="Fill-1"></path>
                                    <path d="M16.2948196,8.68675583 C16.447044,8.69459632 16.5955202,8.63715092 16.7032937,8.52844417 C16.8110892,8.41982577 16.8682089,8.27021595 16.8604059,8.11682945 L16.8604059,2.60761472 C16.8560441,2.13422577 16.7389991,1.66896442 16.5192218,1.2506135 C16.1870242,0.689764417 15.7292115,0.36408589 15.1815108,0.128893252 C14.7743079,0.043398773 14.3583596,0.00691288344 13.9425867,0.0202748466 L3.0345136,0.0202748466 C2.69332945,0.0202748466 2.36121959,0.0202748466 2.02900014,0.128893252 C0.790010283,0.36408589 0,1.48580613 0,2.60761472 L0,15.2996687 C0,16.0866552 0.332197538,16.7651779 0.89780571,17.3260491 C1.3461058,17.7719853 1.95587985,18.013892 2.5856217,17.9954282 L7.75686511,17.9954282 C7.97423136,18.0232123 8.1880249,17.9219264 8.30550832,17.7354994 C8.42296983,17.5490503 8.42296983,17.3110307 8.30550832,17.1246037 C8.1880249,16.9381546 7.97423136,16.8368687 7.75686511,16.8646528 L2.24441564,16.8646528 C2.13670789,16.8646528 2.13670789,16.8646528 2.01102692,16.7561227 L1.90331917,16.7561227 L1.79561142,16.6475926 C1.76700771,16.6475926 1.73960953,16.636108 1.71940062,16.6157669 C1.69919172,16.5954037 1.68781599,16.5677963 1.68781599,16.5389742 C1.58010824,16.4304442 1.58010824,16.5389742 1.68781599,16.5389742 L1.46341388,16.3219141 L1.14020295,15.9962356 L1.14020295,2.39046626 C1.12521066,2.26828712 1.16468597,2.14579877 1.2479107,2.05571043 L1.2479107,1.93812515 C1.2479107,1.90932515 1.25928643,1.88171779 1.27949533,1.8613546 C1.29970423,1.84099141 1.32710242,1.82959509 1.35561845,1.82959509 L1.46341388,1.72106503 L1.57112163,1.61244663 L1.67882939,1.50391656 L1.78662481,1.3953865 C1.89433257,1.2867681 1.89433257,1.3953865 1.78662481,1.3953865 C1.89433257,1.2867681 2.01102692,1.2867681 2.11873468,1.16918282 L14.8224192,1.16918282 C14.9301269,1.16918282 15.0468213,1.27771288 15.1546167,1.3953865 L15.2623244,1.3953865 L15.3700322,1.50391656 L15.4778276,1.61244663 L15.5855354,1.72106503 C15.6649244,1.76627485 15.7181645,1.84684417 15.7292115,1.93812515 L15.7292115,8.12588466 C15.7239949,8.27772515 15.7822105,8.42490552 15.8896553,8.5315362 C15.9972096,8.63810061 16.1441296,8.69441963 16.2948196,8.68675583 Z" id="Fill-3"></path>
                                    <path d="M11.8407805,3.88163964 C11.8516837,3.72893188 11.794885,3.57893699 11.6852103,3.47066325 C11.5755355,3.36238952 11.4236219,3.30631646 11.268916,3.31710226 L3.99811526,3.31710226 C3.77114235,3.31710226 3.5533441,3.54117573 3.5533441,3.88163964 C3.5533441,4.22221293 3.78022836,4.43722895 3.99811526,4.43722895 L11.268916,4.43722895 C11.6138076,4.43722895 11.8407805,4.10571311 11.8407805,3.88163964 Z M3.99811526,10.0021577 C3.77114235,10.0021577 3.5533441,10.2351354 3.5533441,10.5667169 C3.54554343,10.71704 3.60207612,10.8637751 3.70906941,10.9710206 C3.81606269,11.0783535 3.96367707,11.1364831 4.1161004,11.1312543 L6.95722856,11.1312543 C7.27311137,11.1312543 7.52907086,10.878477 7.52907086,10.5667169 C7.52907086,10.2549568 7.27311137,10.0021577 6.95722856,10.0021577 L3.99811526,10.0021577 Z M10.7060711,7.2151974 C10.7140269,7.06325538 10.6562975,6.91507635 10.5473097,6.80748083 C10.4383219,6.69979779 10.2882033,6.64287149 10.1342066,6.65066003 L3.99811526,6.65066003 C3.77114235,6.65066003 3.5533441,6.88361593 3.5533441,7.2151974 C3.5533441,7.54680076 3.78022836,7.77975666 3.99811526,7.77975666 L10.1342066,7.77975666 C10.4700786,7.77975666 10.7060711,7.43929275 10.7060711,7.2151974 Z" id="Fill-5"></path>
                                </g>
                            </g>
                        </g>
                    </g>
                </g>
            </g>
        </g>
    </g>
</svg>