<?xml version="1.0" encoding="UTF-8"?>
<svg width="18px" height="18px" viewBox="0 0 18 18" version="1.1" xmlns="http://www.w3.org/2000/svg" xmlns:xlink="http://www.w3.org/1999/xlink">
    <!-- Generator: Sketch 49.1 (51147) - http://www.bohemiancoding.com/sketch -->
    <title>1.1 用户主页</title>
    <desc>Created with Sketch.</desc>
    <defs>
        <polygon id="path-1" points="3.55555556e-05 0 15.7944889 0 15.7944889 15.7944533 3.55555556e-05 15.7944533"></polygon>
    </defs>
    <g id="4.1-文档首页" stroke="none" stroke-width="1" fill="none" fill-rule="evenodd" transform="translate(-847.000000, -707.000000)">
        <g id="Group-6-Copy-4" transform="translate(847.000000, 707.000000)">
            <g id="Page-1" transform="translate(1.000000, 1.000000)">
                <mask id="mask-2" fill="white">
                    <use xlink:href="#path-1"></use>
                </mask>
                <g id="Clip-2"></g>
                <path d="M2.22048,13.8218667 C2.08501333,13.8218667 1.97514667,13.7091556 1.97514667,13.5744 C1.97514667,13.4375111 2.08501333,13.3272889 2.22048,13.3272889 C2.35488,13.3272889 2.46581333,13.4375111 2.46581333,13.5744 C2.46581333,13.7091556 2.35488,13.8218667 2.22048,13.8218667 Z M2.22048,12.8348444 C1.80839111,12.8348444 1.48021333,13.1644444 1.48021333,13.5744 C1.48021333,13.9832889 1.80874667,14.3146667 2.22048,14.3146667 C2.62901333,14.3146667 2.95790222,13.9832889 2.95790222,13.5744 C2.95790222,13.1644444 2.62901333,12.8348444 2.22048,12.8348444 Z M14.7975467,7.17582222 C14.78688,7.41902222 14.6851911,7.89795556 13.8208356,7.89795556 L12.8334578,7.89795556 C12.6958578,7.89795556 12.5874133,8.00746667 12.5874133,8.14506667 C12.5874133,8.28124444 12.6958578,8.39217778 12.8334578,8.39217778 L13.7902578,8.39217778 C14.5287467,8.39217778 14.62688,9.00622222 14.5785244,9.30275556 C14.5184356,9.66968889 14.3467022,10.3669333 13.5111467,10.3669333 L12.3403022,10.3669333 C12.20128,10.3669333 12.0917689,10.4768 12.0917689,10.6126222 C12.0917689,10.7484444 12.20128,10.8611556 12.3403022,10.8611556 L13.3091911,10.8611556 C14.1433244,10.8611556 14.0715022,11.4947556 13.9499022,11.8737778 C13.7931022,12.3736889 13.6985244,12.8348444 12.6464356,12.8348444 L11.8432356,12.8348444 C11.7077689,12.8348444 11.5954133,12.9443556 11.5954133,13.0801778 C11.5954133,13.2167111 11.7077689,13.3272889 11.8432356,13.3272889 L12.6187022,13.3272889 C13.1570133,13.3272889 13.1790578,13.8385778 13.1250133,14.0213333 C13.06528,14.2218667 12.9899022,14.3704889 12.9867022,14.3776 C12.83808,14.6456889 12.59808,14.8071111 12.0889244,14.8071111 L9.39096889,14.8071111 C8.03594667,14.8071111 6.69159111,14.5006222 6.65603556,14.4920889 C4.60519111,14.0202667 4.49674667,13.9832889 4.36661333,13.9477333 C4.36661333,13.9477333 3.95132444,13.8759111 3.95132444,13.5121778 L3.94848,6.69546667 C3.94848,6.46328889 4.09390222,6.25528889 4.34243556,6.18026667 C4.36661333,6.16853333 4.40999111,6.15608889 4.43985778,6.14435556 C6.69408,5.21102222 7.38101333,3.16302222 7.40341333,1.48124444 C7.40590222,1.24586667 7.58759111,0.987733333 7.89443556,0.987733333 C8.41888,0.987733333 9.34225778,2.03555556 9.34225778,3.33226667 C9.34225778,4.50275556 9.29319111,4.70506667 8.88323556,5.92426667 C13.8208356,5.92426667 13.7849244,5.99537778 14.2222578,6.10915556 C14.7627022,6.26346667 14.80608,6.71146667 14.80608,6.86506667 C14.80608,7.03288889 14.8039467,7.00835556 14.7975467,7.17582222 Z M3.45283556,14.3150222 C3.45283556,14.5877333 3.23381333,14.8071111 2.95790222,14.8071111 L1.48021333,14.8071111 C1.20714667,14.8071111 0.983857778,14.5877333 0.983857778,14.3150222 L0.983857778,6.41635556 C0.983857778,6.14435556 1.20714667,5.92426667 1.48021333,5.92426667 L2.95790222,5.92426667 C3.23381333,5.92426667 3.45283556,6.14435556 3.45283556,6.41635556 L3.45283556,14.3150222 Z M14.3929244,5.16906667 C13.7799467,5.00728889 12.32928,5.00871111 10.2055467,4.95324444 C10.3061689,4.49031111 10.3271467,4.07253333 10.3271467,3.33191111 C10.3271467,1.56195556 9.03861333,0 7.89443556,0 C7.08910222,0 6.42528,0.660266667 6.41496889,1.46951111 C6.40465778,2.46328889 6.09781333,4.18062222 4.43985778,5.05102222 C4.31754667,5.11608889 3.97301333,5.28711111 3.92181333,5.3088 L3.94848,5.33013333 C3.68821333,5.10791111 3.32910222,4.93688889 2.95790222,4.93688889 L1.48021333,4.93688889 C0.662435556,4.93688889 3.55555556e-05,5.60142222 3.55555556e-05,6.41635556 L3.55555556e-05,14.3146667 C3.55555556e-05,15.1299556 0.662435556,15.7944889 1.48021333,15.7944889 L2.95790222,15.7944889 C3.54919111,15.7944889 4.03808,15.4396444 4.27701333,14.9425778 C4.28270222,14.9450667 4.29443556,14.9472 4.30154667,14.9482667 C4.33141333,14.9568 4.36981333,14.9660444 4.41923556,14.9799111 C4.42634667,14.9809778 4.43203556,14.9824 4.43985778,14.9852444 C4.72501333,15.056 5.27399111,15.1857778 6.44128,15.4563556 C6.69408,15.5118222 8.01959111,15.7944889 9.39096889,15.7944889 L12.0889244,15.7944889 C12.9134578,15.7944889 13.50368,15.4794667 13.8578133,14.8433778 C13.8642133,14.8327111 13.9751467,14.6119111 14.0686578,14.3111111 C14.1376356,14.0878222 14.16288,13.7674667 14.0811022,13.4442667 C14.6105244,13.0791111 14.7819022,12.5290667 14.8931911,12.1706667 C15.0773689,11.5829333 15.0201244,11.1416889 14.8931911,10.8259556 C15.1915022,10.5429333 15.4471467,10.1152 15.5559467,9.46097778 C15.6213689,9.05351111 15.5474133,8.63644444 15.3603911,8.28906667 C15.6395022,7.97368889 15.7682133,7.58151111 15.7810133,7.21564444 L15.7877689,7.11217778 C15.7909689,7.04568889 15.7945244,7.00622222 15.7945244,6.86506667 C15.7945244,6.24213333 15.3625244,5.4464 14.3929244,5.16906667 Z" id="Fill-1" fill="#999999" mask="url(#mask-2)"></path>
            </g>
        </g>
    </g>
</svg>