<?xml version="1.0" encoding="UTF-8"?>
<svg width="72px" height="72px" viewBox="0 0 72 72" version="1.1" xmlns="http://www.w3.org/2000/svg" xmlns:xlink="http://www.w3.org/1999/xlink">
    <!-- Generator: Sketch 49.1 (51147) - http://www.bohemiancoding.com/sketch -->
    <title>弹窗 copy</title>
    <desc>Created with Sketch.</desc>
    <defs>
        <polygon id="path-1" points="0.00498777506 0.0663414634 67.97822 0.0663414634 67.97822 67.9999171 0.00498777506 67.9999171"></polygon>
    </defs>
    <g id="Page-1" stroke="none" stroke-width="1" fill="none" fill-rule="evenodd">
        <g id="1.4-订单确认-copy-6" transform="translate(-925.000000, -213.000000)">
            <g id="Group-9" transform="translate(925.000000, 213.000000)">
                <g id="dengdaizhifujieguo_fuzhipsd" transform="translate(0.000000, 2.000000)">
                    <g id="Group-4">
                        <mask id="mask-2" fill="white">
                            <use xlink:href="#path-1"></use>
                        </mask>
                        <g id="Clip-2"></g>
                        <path d="M44.6906308,41.0690976 L38.9140391,37.7332829 L38.9140391,37.3691512 C38.9140391,34.942878 37.3940147,32.8807366 35.2660636,32.0314 L35.2660636,17.6562 C35.2660636,16.3219073 34.1714132,15.2299268 32.8339413,15.2299268 C31.4960538,15.2299268 30.4017359,16.3219073 30.4017359,17.6562 L30.4017359,32.2740439 C28.5774572,33.2445366 27.361687,35.1249854 27.361687,37.3691512 C27.361687,40.5232732 29.9152616,43.131239 33.1378631,43.131239 C34.4146504,43.131239 35.5700685,42.7069024 36.542934,42.0395902 L42.2584254,45.3149512 C43.4134279,45.9821805 44.9337848,45.5575122 45.6023961,44.4053268 C46.2713399,43.2527268 45.8456333,41.7364098 44.6906308,41.0690976 Z" id="Fill-1" fill="#409EFF" mask="url(#mask-2)"></path>
                        <path d="M48.0346015,58.9016 C46.3321076,58.9016 44.9945526,60.2362244 44.9945526,61.9346488 C44.9945526,63.6329902 46.3321076,64.9672829 48.0346015,64.9672829 C49.7371785,64.9672829 51.0746504,63.6329902 51.0746504,61.9346488 C51.0746504,60.2362244 49.7371785,58.9016 48.0346015,58.9016 Z M34.050044,0.0663414634 C15.2617604,0.0663414634 0,15.290878 0,34.0333366 C0,52.7757122 15.2617604,67.9999171 34.050044,67.9999171 L35.2660636,67.9999171 C36.9683081,67.9999171 38.3061956,66.6656244 38.3061956,64.9672829 C38.3061956,63.2688585 36.9683081,61.9346488 35.2660636,61.9346488 L35.1443619,61.9346488 L35.1443619,61.8736976 C34.6578875,61.8736976 34.2321809,61.9346488 33.7457066,61.9346488 C18.1193399,61.9346488 5.47225428,49.3184098 5.47225428,33.7297415 C5.47225428,18.1414878 18.1193399,5.52524878 33.7457066,5.52524878 C48.5210758,5.52524878 60.6209193,16.8071951 61.8977897,31.2429317 L67.97822,31.3644195 C66.5796479,13.8350976 51.9261467,0.0663414634 34.050044,0.0663414634 Z M57.7630073,51.6231951 C56.060846,51.6231951 54.7229584,52.9574878 54.7229584,54.6558293 C54.7229584,56.3542537 56.060846,57.6884634 57.7630073,57.6884634 C59.4655844,57.6884634 60.8034719,56.3542537 60.8034719,54.6558293 C60.8034719,52.9574878 59.4655844,51.6231951 57.7630073,51.6231951 Z" id="Fill-3" fill="#409EFF" mask="url(#mask-2)"></path>
                    </g>
                    <polygon id="Fill-5" fill="#409EFF" points="56 31 64.0525672 46 73 31"></polygon>
                </g>
            </g>
        </g>
    </g>
</svg>