<?xml version="1.0" encoding="UTF-8"?>
<svg width="20px" height="20px" viewBox="0 0 20 20" version="1.1" xmlns="http://www.w3.org/2000/svg" xmlns:xlink="http://www.w3.org/1999/xlink">
    <!-- Generator: Sketch 49.1 (51147) - http://www.bohemiancoding.com/sketch -->
    <title>Slice 2 Copy 2</title>
    <desc>Created with Sketch.</desc>
    <defs>
        <polygon id="path-1" points="0 0 18.3799992 0 18.3799992 15.477894 0 15.477894"></polygon>
    </defs>
    <g id="Page-1" stroke="none" stroke-width="1" fill="none" fill-rule="evenodd">
        <g id="1.3-项目详情" transform="translate(-1469.000000, -477.000000)">
            <g id="Group-2" transform="translate(1358.000000, 452.000000)">
                <g id="wechat" transform="translate(111.000000, 25.000000)">
                    <g id="Page-1" transform="translate(1.000000, 2.000000)">
                        <mask id="mask-2" fill="white">
                            <use xlink:href="#path-1"></use>
                        </mask>
                        <g id="Clip-2"></g>
                        <path d="M14.4673566,7.73806036 C14.1566552,7.73806036 13.8413319,8.06404822 13.8413319,8.3872034 C13.8413319,8.71259247 14.1566552,9.03395132 14.4673566,9.03395132 C14.9394889,9.03395132 15.2582449,8.71259247 15.2582449,8.3872034 C15.2582449,8.06354156 14.9400947,7.73806036 14.4673566,7.73806036 M11.0027718,7.73806036 C10.6874037,7.73806036 10.3720804,8.06404822 10.3720804,8.3872034 C10.3720804,8.71259247 10.6874037,9.03395132 11.0027718,9.03395132 C11.476542,9.03395132 11.7895992,8.71259247 11.7895992,8.3872034 C11.7895992,8.06354156 11.476542,7.73806036 11.0027718,7.73806036 M15.7137293,13.3312565 C15.6178355,13.4055739 15.5770907,13.5334819 15.6115533,13.6514409 L15.883215,14.5787387 L14.7683429,13.9526255 C14.7258256,13.9285133 14.6781479,13.9161002 14.6304703,13.9161002 C14.6069792,13.9161002 14.5833984,13.919071 14.5604234,13.9255424 C13.9624669,14.0806256 13.3438688,14.2404068 12.741425,14.2404068 C9.94298141,14.2404068 7.66672612,12.2664934 7.66672612,9.84043444 C7.66672612,7.4143755 9.94298141,5.44110689 12.741425,5.44110689 C15.4863125,5.44110689 17.8056908,7.45564503 17.8056908,9.84043444 C17.8056908,11.0502167 17.0629961,12.2900299 15.7137293,13.3312565 M7.15445482,10.9806895 C6.96778272,10.9971559 6.77819388,11.0054236 6.59037752,11.0054236 C5.95629819,11.0054236 5.41981784,10.8927845 4.79949211,10.761353 L4.43875727,10.6865059 C4.37669777,10.6729413 4.31122792,10.6817387 4.25444101,10.7117927 L2.66968019,11.5260139 L3.0815255,10.2560546 C3.12175423,10.1317393 3.07748692,9.99607033 2.97353838,9.92122324 C1.38132863,8.78214269 0.574420548,7.39431648 0.574420548,5.79726388 C0.574420548,2.92608355 3.27275221,0.589633839 6.58977173,0.589633839 C9.52202686,0.589633839 12.1181825,2.42076207 12.6540346,4.85626326 C9.57944199,4.89755583 7.09178953,7.11606955 7.09178953,9.84105625 C7.09178953,10.2372622 7.15041624,10.621032 7.24920437,10.9913063 C7.21931888,10.9836604 7.18775066,10.9777187 7.15445482,10.9806895 M18.3799992,9.84105625 C18.3799992,7.28232221 16.0675313,5.10213019 13.2290609,4.87514776 C13.2329873,4.84332048 13.2347374,4.81029564 13.2278269,4.77729383 C12.658679,2.05345863 9.80522099,0 6.58977173,0 C2.95628467,0 0,2.60060235 0,5.79726388 C0,7.51225246 0.852947877,9.05751088 2.46925449,10.2761136 L1.90578298,12.0147769 C1.86959282,12.1279457 1.90237262,12.2523761 1.99018928,12.3308158 C2.04365558,12.377958 2.11078573,12.4026921 2.17863386,12.4026921 C2.22227295,12.4026921 2.26654026,12.3920753 2.3072626,12.3714635 L4.42271513,11.284845 L4.68345028,11.3390574 C5.33480576,11.4764536 5.897133,11.5955641 6.58977173,11.5955641 C6.79371997,11.5955641 7.00047278,11.5861218 7.20327675,11.568481 C7.28539452,11.5613878 7.35490295,11.5189207 7.4019524,11.4576612 C8.16470535,13.4167204 10.2670101,14.831077 12.7407967,14.831077 C13.3743825,14.831077 14.0159107,14.6742896 14.5914531,14.5262997 L16.2220742,15.4412535 C16.2651748,15.4654809 16.3128525,15.477894 16.3599244,15.477894 C16.42425,15.477894 16.4885756,15.455486 16.5402918,15.4123971 C16.6310028,15.3369282 16.6683372,15.2126129 16.6345029,15.0987993 L16.2180132,13.6773495 C17.6143519,12.5448324 18.3799992,11.1899389 18.3799992,9.84105625 M4.5427058,3.04807278 C4.07003501,3.04807278 3.5921365,3.36464142 3.5921365,3.85402622 C3.5921365,4.337999 4.07003501,4.66285839 4.5427058,4.66285839 C5.01369386,4.66285839 5.32903956,4.337999 5.32903956,3.85402622 C5.32850109,3.36464142 5.01369386,3.04807278 4.5427058,3.04807278 M8.95341738,4.66285839 C9.42606574,4.66285839 9.74201723,4.337999 9.74201723,3.85402622 C9.74201723,3.36464142 9.42667153,3.04807278 8.95341738,3.04807278 C8.48005105,3.04807278 8.00511417,3.36464142 8.00511417,3.85402622 C8.00563021,4.337999 8.48065684,4.66285839 8.95341738,4.66285839" id="Fill-1" fill="#72C02C" mask="url(#mask-2)"></path>
                    </g>
                </g>
            </g>
        </g>
    </g>
</svg>