<?xml version="1.0" encoding="UTF-8"?>
<svg width="20px" height="20px" viewBox="0 0 20 20" version="1.1" xmlns="http://www.w3.org/2000/svg" xmlns:xlink="http://www.w3.org/1999/xlink">
    <!-- Generator: Sketch 49.1 (51147) - http://www.bohemiancoding.com/sketch -->
    <title>Slice 2 Copy 3</title>
    <desc>Created with Sketch.</desc>
    <defs>
        <polygon id="path-1" points="0 0 19 0 19 15.6956522 0 15.6956522"></polygon>
    </defs>
    <g id="Page-1" stroke="none" stroke-width="1" fill="none" fill-rule="evenodd">
        <g id="1.3-项目详情" transform="translate(-1378.000000, -477.000000)">
            <g id="Group-2" transform="translate(1358.000000, 452.000000)">
                <g id="新浪" transform="translate(20.000000, 25.000000)">
                    <g id="Page-1" transform="translate(1.000000, 2.000000)">
                        <mask id="mask-2" fill="white">
                            <use xlink:href="#path-1"></use>
                        </mask>
                        <g id="Clip-2"></g>
                        <path d="M7.44609537,10.4296101 C7.34550908,10.6011531 7.12355672,10.6836141 6.94948824,10.6119874 C6.77873248,10.5421664 6.72482546,10.3498576 6.82209902,10.181625 C6.92208299,10.0136934 7.13590414,9.93213526 7.30605758,9.99954866 C7.47952374,10.0624478 7.54156199,10.2568632 7.44609537,10.4296101 M6.53088065,11.6036265 C6.25291317,12.0457261 5.65812901,12.2401415 5.21000808,12.0357946 C4.76881376,11.8350592 4.63841298,11.320731 4.91638046,10.8885629 C5.19073407,10.4588025 5.76534074,10.2670956 6.21014894,10.4533853 C6.66037796,10.6450922 6.80372848,11.1561099 6.53088065,11.6036265 M7.57468921,8.46950514 C6.20773969,8.11408001 4.66340897,8.79453406 4.06952828,9.99744199 C3.46510711,11.225028 4.04965195,12.58714 5.43015351,13.0325499 C6.86064706,13.4939104 8.5462202,12.7872735 9.13257197,11.4627807 C9.71049137,10.1680822 8.9889203,8.83456077 7.57468921,8.46950514 M14.4151588,3.9187994 C13.8607296,3.30365208 13.0415838,3.07041374 12.2859821,3.23112248 C11.9769955,3.29733208 11.7800391,3.60099335 11.8462935,3.91007177 C11.912548,4.21704352 12.2161138,4.41537135 12.5241969,4.34855985 L12.5241969,4.34916176 C12.893716,4.2706131 13.2945553,4.38437322 13.565295,4.68472402 C13.8372394,4.98537576 13.9098181,5.39497238 13.7932705,5.75461086 L13.7935717,5.75461086 C13.6972016,6.05405879 13.8616331,6.37668008 14.1618861,6.4738878 C14.4624404,6.57049362 14.784979,6.4064744 14.8816503,6.1055217 C15.1192628,5.37119712 14.9704914,4.53364576 14.4151588,3.9187994 M16.1645771,2.34120536 C15.0250008,1.07870879 13.3448485,0.59688352 11.7935911,0.927028629 L11.7929888,0.927028629 C11.4343114,1.00347061 11.2051313,1.35648813 11.2819262,1.71432089 C11.3584199,2.0730565 11.7113754,2.30178055 12.070354,2.22533857 C13.1743939,1.99149832 14.3681784,2.33368154 15.1782894,3.23052058 C15.9874971,4.12735962 16.2073413,5.35013043 15.8607102,6.42242489 C15.7480776,6.77213193 15.939312,7.14561423 16.2892559,7.25877244 C16.637694,7.37132875 17.0120316,7.18052474 17.1252665,6.83202151 L17.1255676,6.82931294 C17.6116343,5.32093802 17.3044546,3.60189621 16.1645771,2.34120536 M7.28768703,13.8421127 C4.41555714,14.1256101 1.93643653,12.828504 1.75002063,10.9439382 C1.56330358,9.06027529 3.7409665,7.30241058 6.61249407,7.01891314 C9.48492512,6.73571665 11.9640457,8.03282278 12.1501605,9.91588381 C12.3359741,11.8010515 10.1601181,13.5583143 7.28768703,13.8421127 M13.0313445,7.58741279 C12.7871065,7.51398033 12.6196635,7.46432313 12.747655,7.14380851 C13.0247191,6.44710301 13.0536301,5.84640143 12.7530759,5.41844669 C12.1902143,4.61400013 10.6491963,4.65703637 8.8829132,5.39557429 C8.8829132,5.39557429 8.32818286,5.63874407 8.46972644,5.19905218 C8.74197194,4.3259884 8.70101466,3.5949743 8.27849203,3.17333957 C7.31960962,2.21450427 4.77122301,3.20915294 2.58663349,5.39256476 C0.95045003,7.02794172 0,8.76112831 0,10.2601737 C0,13.1267481 3.67892825,14.8695652 7.27774886,14.8695652 C11.9959683,14.8695652 15.1343206,12.1305947 15.1343206,9.95530861 C15.1343206,8.64134913 14.026968,7.8958893 13.0313445,7.58741279" id="Fill-1" fill="#FC5659" mask="url(#mask-2)"></path>
                    </g>
                </g>
            </g>
        </g>
    </g>
</svg>