<?xml version="1.0" encoding="UTF-8"?>
<svg width="20px" height="20px" viewBox="0 0 20 20" version="1.1" xmlns="http://www.w3.org/2000/svg" xmlns:xlink="http://www.w3.org/1999/xlink">
    <!-- Generator: Sketch 49.1 (51147) - http://www.bohemiancoding.com/sketch -->
    <title>Slice 20</title>
    <desc>Created with Sketch.</desc>
    <defs>
        <polygon id="path-1" points="0.00129807692 0.0425985577 17.9810765 0.0425985577 17.9810765 17.7620192 0.00129807692 17.7620192"></polygon>
    </defs>
    <g id="Page-1" stroke="none" stroke-width="1" fill="none" fill-rule="evenodd">
        <g id="2.1-I--我的文档-1-" transform="translate(-417.000000, -527.000000)">
            <g id="Group-3" transform="translate(390.000000, 118.000000)">
                <g id="图标">
                    <g id="Group-3">
                        <g id="图标" transform="translate(27.000000, 49.000000)">
                            <g id="个人信息-copy-2" transform="translate(0.000000, 360.000000)">
                                <g id="Group-2" transform="translate(1.000000, 1.000000)">
                                    <mask id="mask-2" fill="white">
                                        <use xlink:href="#path-1"></use>
                                    </mask>
                                    <g id="Clip-2"></g>
                                    <path d="M16.0265986,2.26960096 L13.6812764,2.26960096 C13.5415817,2.26960096 13.4125312,2.34415385 13.3427163,2.46509135 C13.2729231,2.58600721 13.2729231,2.73500481 13.3427163,2.85594231 C13.4125312,2.97696635 13.5415817,3.05141106 13.6812764,3.05141106 L16.0265986,3.05141106 C16.3385264,3.05141106 16.6376034,3.17563702 16.8576707,3.39672115 C17.077738,3.61780529 17.2007091,3.91737981 17.1992596,4.22930769 L17.1992596,15.8127837 C17.1978317,16.4593774 16.6732788,16.9828269 16.0265986,16.9828269 L1.95447115,16.9828269 C1.30779087,16.9828269 0.783237981,16.4593774 0.781810096,15.8127837 L0.781810096,4.22930769 C0.780360577,3.91737981 0.903331731,3.61780529 1.12339904,3.39672115 C1.34346635,3.17563702 1.64254327,3.05141106 1.95447115,3.05141106 L4.29979327,3.05141106 C4.43948798,3.05141106 4.56853846,2.97696635 4.63835337,2.85594231 C4.70814663,2.73500481 4.70814663,2.58600721 4.63835337,2.46509135 C4.56853846,2.34415385 4.43948798,2.26960096 4.29979327,2.26960096 L1.95447115,2.26960096 C1.43524038,2.26960096 0.937298077,2.47623317 0.570612981,2.8439351 C0.203927885,3.21155048 -0.00134134615,3.71007692 -8.91150403e-13,4.22930769 L-8.91150403e-13,15.8127837 C0.00287740385,16.8901226 0.877045673,17.7620192 1.95447115,17.7620192 L16.0265986,17.7620192 C17.104024,17.7620192 17.9781923,16.8901226 17.9810697,15.8127837 L17.9810697,4.22930769 C17.9824327,3.71007692 17.7771418,3.21155048 17.4104567,2.8439351 C17.0437716,2.47623317 16.5458293,2.26960096 16.0265986,2.26960096 Z M1.83978606,14.3560168 C1.8398726,14.5719303 2.0148101,14.7468678 2.23072356,14.7468678 C2.44657212,14.7468678 2.62150962,14.5719303 2.62159615,14.3560168 C2.62159615,12.6958846 3.96742067,11.3500601 5.62753125,11.3500601 C7.28772837,11.3500601 8.63355288,12.6958846 8.63355288,14.3560168 C8.63355288,14.5719303 8.80849038,14.7469543 9.02442548,14.7469543 C9.2402524,14.7469543 9.41527644,14.5719303 9.41527644,14.3560168 C9.41190144,12.8414207 8.50554087,11.4748053 7.1116226,10.8822981 C8.0201899,10.2365481 8.40682212,9.07732212 8.0679375,8.01545192 C7.72896635,6.95349519 6.74223317,6.23271635 5.62753125,6.23271635 C4.51285096,6.23271635 3.52618269,6.95349519 3.18721154,8.01545192 C2.84824038,9.07732212 3.2348726,10.2365481 4.14346154,10.8822981 C2.74954327,11.4748053 1.8432476,12.8414207 1.83978606,14.3560168 Z M3.84901442,8.805375 C3.84689423,8.08500721 4.27917548,7.43436779 4.94409375,7.15725 C5.60903365,6.88015385 6.37546154,7.03116346 6.8855625,7.53975 C7.39566346,8.04842308 7.54887981,8.81433173 7.27370913,9.48011538 C6.99853846,10.1457909 6.34926202,10.5799976 5.62889423,10.5799976 C5.1570649,10.5806899 4.70433894,10.3937452 4.37045192,10.0603558 C4.03662981,9.72705288 3.84901442,9.27458654 3.84901442,8.80275721 L3.84901442,8.805375 Z M16.4931058,8.48221875 C16.4931058,8.37852404 16.4518486,8.27913462 16.3785937,8.20585817 C16.3053173,8.13249519 16.2058413,8.09134615 16.1021466,8.09134615 L10.999774,8.09134615 C10.8600793,8.09134615 10.7310288,8.1658125 10.6612139,8.2868149 C10.5914207,8.4077524 10.5914207,8.55675 10.6612139,8.6776875 C10.7310288,8.798625 10.8600793,8.87315625 10.999774,8.87315625 L16.1021466,8.87315625 C16.2058413,8.87315625 16.3053173,8.83192067 16.3785937,8.75864423 C16.4518486,8.68528125 16.4931058,8.58589183 16.4931058,8.48221875 Z M10.999774,12.3494712 C10.7838389,12.3494712 10.6088149,12.5244952 10.6088149,12.7403438 C10.6088149,12.9562572 10.7838389,13.1312813 10.999774,13.1312813 L13.3450962,13.1312813 C13.5609231,13.1312813 13.7359471,12.9562572 13.7359471,12.7403438 C13.7359471,12.5244952 13.5609231,12.3494712 13.3450962,12.3494712 L10.999774,12.3494712 Z M15.5054207,10.7233269 C15.5054207,10.6196322 15.4642716,10.5202644 15.3909087,10.4469014 C15.3176538,10.373625 15.2181779,10.332476 15.1145697,10.332476 L10.999774,10.332476 C10.7838389,10.332476 10.6088149,10.5075 10.6088149,10.7233269 C10.6088149,10.939262 10.7838389,11.1141995 10.999774,11.1141995 L15.1275721,11.1141995 C15.3383582,11.1071899 15.5055072,10.9342644 15.5054207,10.7233269 Z M5.96760577,4.09376683 L12.0134639,4.09376683 C12.2272788,4.09385337 12.4014591,3.92194471 12.4043149,3.70815144 L12.4043149,1.9934351 C12.4043149,1.88974038 12.3631659,1.79035096 12.2898029,1.71698798 C12.2165481,1.64373317 12.1170721,1.60247596 12.0134639,1.60247596 L10.9111154,1.60247596 C10.7207091,0.693584135 9.91921154,0.0425985577 8.99052404,0.0425985577 C8.06185817,0.0425985577 7.26036058,0.693584135 7.06995433,1.60247596 L5.96760577,1.60247596 C5.8639976,1.60247596 5.76452163,1.64373317 5.69124519,1.71698798 C5.61790385,1.79035096 5.57675481,1.88974038 5.57675481,1.9934351 L5.57675481,3.70815144 C5.57961058,3.92194471 5.75379087,4.09385337 5.96760577,4.09376683 Z M6.35854327,2.38428606 L7.42692548,2.38428606 C7.53062019,2.38428606 7.63009615,2.34313702 7.70335096,2.26977404 C7.77671394,2.1964976 7.81786298,2.09704327 7.81786298,1.9934351 C7.875,1.38842308 8.38291587,0.926242788 8.99052404,0.926242788 C9.59815385,0.926242788 10.1061562,1.38842308 10.1632067,1.9934351 C10.1632067,2.09704327 10.2044423,2.1964976 10.2777187,2.26977404 C10.3509736,2.34313702 10.4504495,2.38428606 10.5541442,2.38428606 L11.6225264,2.38428606 L11.6225264,3.31466106 L6.35854327,3.31466106 L6.35854327,2.38428606 Z" id="Fill-1" fill="#666666" mask="url(#mask-2)"></path>
                                </g>
                            </g>
                        </g>
                    </g>
                </g>
            </g>
        </g>
    </g>
</svg>