<?xml version="1.0" encoding="UTF-8"?>
<svg width="132px" height="37px" viewBox="0 0 132 37" version="1.1" xmlns="http://www.w3.org/2000/svg" xmlns:xlink="http://www.w3.org/1999/xlink">
    <!-- Generator: Sketch 49.1 (51147) - http://www.bohemiancoding.com/sketch -->
    <title>2.19 确认订单</title>
    <desc>Created with Sketch.</desc>
    <defs>
        <polygon id="path-1" points="0 0 34 0 34 34 0 34"></polygon>
    </defs>
    <g id="Page-1" stroke="none" stroke-width="1" fill="none" fill-rule="evenodd">
        <g id="1.4-订单确认" transform="translate(-446.000000, -540.000000)">
            <g id="微信" transform="translate(446.000000, 540.000000)">
                <g id="Group-4" transform="translate(2.000000, 2.000000)">
                    <text id="微信支付" font-family="PingFangSC-Regular, PingFang SC" font-size="21" font-weight="normal" line-spacing="21" fill="#01C801">
                        <tspan x="44" y="29">微信支付</tspan>
                    </text>
                    <g id="Page-1">
                        <mask id="mask-2" fill="white">
                            <use xlink:href="#path-1"></use>
                        </mask>
                        <g id="Clip-2"></g>
                        <path d="M12.9620562,21.4099179 C10.9271461,22.6383473 10.6249676,20.7195095 10.6249676,20.7195095 L8.07433267,14.2731058 C7.09367806,11.2092888 8.92385322,12.8917706 8.92385322,12.8917706 C8.92385322,12.8917706 10.4948702,14.1792891 11.6869979,14.9629959 C12.8786073,15.7477395 14.2365962,15.1936504 14.2365962,15.1936504 L30.910316,6.85743509 C27.83359,2.71135623 22.7525344,0 16.9992225,0 C7.6104395,0 0,7.21456078 0,16.1152316 C0,21.2352425 2.52005427,25.7913162 6.44526427,28.74473 L5.7377624,33.1520445 C5.7377624,33.1520445 5.39256368,34.4390446 6.58831959,33.8419346 C7.40311295,33.4355681 9.48052502,31.9775208 10.7172279,31.090149 C12.661951,31.8235784 14.7797918,32.2309816 17.0002592,32.2309816 C26.3880055,32.2309816 34,25.0159025 34,16.1152316 C34,13.5376032 33.3588426,11.102514 32.2221748,8.9416185 C26.9099502,12.4040272 14.5543241,20.4494623 12.9620562,21.4099179" id="Fill-1" fill="#01C801" mask="url(#mask-2)"></path>
                    </g>
                </g>
            </g>
        </g>
    </g>
</svg>